<svg width="1060" height="807" viewBox="0 0 1060 807" fill="none" xmlns="http://www.w3.org/2000/svg">
    <path d="M1057.38 603.67C1050.24 648.528 1025.14 689.486 990.208 718.459C987.791 720.362 985.336 722.264 982.882 724.166C982.882 724.166 982.748 724.166 982.691 724.281C958.453 742.714 930.018 754.846 899.935 759.589C844.752 767.826 789.016 751.218 733.262 748.327C633.342 743.114 537.056 781.675 438.621 799.329C340.185 816.983 224.261 806.939 161.942 728.827C161.569 728.396 161.22 727.945 160.896 727.477C141.144 702.194 128.642 672.118 113.076 643.963C110.374 639.035 107.615 634.241 104.723 629.505C77.0357 584.666 36.3522 547.931 15.2873 499.706C-5.77088 451.062 -5.04388 395.742 17.2853 347.668C37.2275 305.474 72.2975 272.62 106.492 240.888C108.719 238.853 110.869 236.817 113.076 234.782C142.444 207.54 171.837 180.272 201.256 152.98C217.43 138.046 233.604 122.979 250.407 108.693C272.69 89.707 295.81 71.8247 321.08 57.0433C382.543 20.746 440.961 24.8742 507.752 13.5551C584.895 0.447754 663.902 -10.9855 738.971 18.7295C782.737 36.0031 820.357 65.5849 857.273 94.6912C863.248 99.4281 869.223 104.089 875.179 108.826C908.955 135.459 942.617 162.092 975.898 189.353C983.167 195.308 990.493 201.414 997.305 207.92C1007.9 218.022 1017.3 229.151 1023.34 242.372C1030.61 258.181 1032.45 275.835 1034.22 293.108C1036.69 317.421 1039.16 341.676 1041.6 365.874C1043.09 380.275 1044.5 394.676 1045.98 409.001C1049.32 441.658 1052.64 474.277 1055.95 506.859C1059.17 539.085 1062.44 571.692 1057.38 603.67Z" fill="#E7ECFF"/>
</svg>
