<svg width="1491" height="1161" viewBox="0 0 1491 1161" fill="none" xmlns="http://www.w3.org/2000/svg">
    <path opacity="0.5" d="M318.343 86.6942C198.405 187.217 179.819 377.298 98.5892 517.527C70.3124 566.322 33.7749 609.992 14.7119 664.123C-29.0536 788.026 31.1802 928.572 111.801 1026.98C150.245 1073.93 195.149 1116.94 249.478 1136.72C291.258 1151.94 336.056 1152.57 380.033 1152.97L1150.5 1160.9C1236.52 1161.77 1332.1 1158.62 1393.95 1092.21C1436.57 1046.48 1453.89 979.692 1468.58 915.944C1486.64 837.613 1503 752.546 1474.91 677.94C1442.82 592.582 1361.67 544.21 1311.26 470.555C1229.45 351.223 1231.33 170.731 1127.14 75.4664C1078.51 31.0041 1014.33 13.5679 951.792 4.84978C833.892 -11.6089 722.215 19.4592 606.433 15.1266C507.464 11.428 400.447 17.8741 318.343 86.6942Z" fill="#E7ECFF"/>
    <path opacity="0.24" d="M559.786 982.613C513.337 987.283 465.463 992.419 424.589 1015.26C419.119 1018.33 413.564 1021.94 410.546 1027.46C404.488 1038.55 411.363 1053.18 422.032 1059.86C432.701 1066.53 445.864 1067.29 458.42 1067.84C681.987 1077.59 905.889 1073.76 1129.64 1069.96C1194.62 1068.86 1260.63 1067.59 1322.9 1048.72C1334.1 1045.34 1346.4 1040.26 1350.61 1029.21C1356.13 1014.76 1343.55 998.737 1328.88 994.236C1314.2 989.735 1298.55 993.095 1283.37 995.06C1230.68 1001.89 1177.52 991.446 1125.05 983.099C1022.35 966.784 915.783 953.512 811.755 951.039C776.289 950.215 746.001 962.515 711.29 967.376C661.173 974.434 610.175 977.541 559.786 982.613Z" fill="#505F98"/>
    <path d="M377.077 549.326L492.906 313.408L561.893 347.19L446.063 583.108L377.077 549.326Z" fill="white"/>
    <path d="M403.922 542.055L418.035 513.22L464.5 535.903L450.386 564.738L403.922 542.055Z" fill="#505F98"/>
    <path d="M403.922 542.055L418.035 513.22L464.5 535.903L450.386 564.738L403.922 542.055Z" fill="url(#paint0_linear)"/>
    <path d="M418.038 513.445L432.151 484.61L478.615 507.293L464.502 536.128L418.038 513.445Z" fill="#505F98"/>
    <path d="M418.038 513.445L432.151 484.61L478.615 507.293L464.502 536.128L418.038 513.445Z" fill="url(#paint1_linear)"/>
    <path d="M432.134 484.826L446.248 455.991L492.712 478.674L478.598 507.509L432.134 484.826Z" fill="#505F98"/>
    <path d="M432.134 484.826L446.248 455.991L492.712 478.674L478.598 507.509L432.134 484.826Z" fill="url(#paint2_linear)"/>
    <path d="M446.271 456.237L460.384 427.402L506.848 450.085L492.735 478.92L446.271 456.237Z" fill="#505F98"/>
    <path d="M446.271 456.237L460.384 427.402L506.848 450.085L492.735 478.92L446.271 456.237Z" fill="url(#paint3_linear)"/>
    <path d="M460.377 427.599L474.49 398.764L520.954 421.447L506.841 450.282L460.377 427.599Z" fill="#505F98"/>
    <path d="M474.492 399.01L488.606 370.175L535.07 392.858L520.956 421.693L474.492 399.01Z" fill="#505F98"/>
    <path d="M488.589 370.391L502.702 341.556L549.166 364.239L535.053 393.074L488.589 370.391Z" fill="#505F98"/>
    <path d="M472.904 402.598L487.018 373.763L533.482 396.446L519.368 425.281L472.904 402.598Z" fill="url(#paint4_linear)"/>
    <path d="M487.029 373.969L501.142 345.135L547.606 367.817L533.493 396.652L487.029 373.969Z" fill="url(#paint5_linear)"/>
    <rect x="787.545" y="867" width="98.0679" height="82" fill="#505F98"/>
    <rect x="787.545" y="867" width="98.0679" height="82" fill="url(#paint6_linear)"/>
    <rect x="579.401" y="525" width="518.359" height="355" rx="9.37" fill="#505F98"/>
    <path opacity="0.65" d="M1080.75 554.438V848.562C1080.76 853.443 1078.84 858.129 1075.4 861.588C1071.96 865.047 1067.29 866.994 1062.41 867H610.748C605.873 866.989 601.203 865.04 597.764 861.582C594.325 858.125 592.399 853.441 592.41 848.562V554.438C592.399 549.559 594.325 544.875 597.764 541.418C601.203 537.96 605.873 536.011 610.748 536H1062.41C1067.29 536.006 1071.96 537.953 1075.4 541.412C1078.84 544.871 1080.76 549.557 1080.75 554.438Z" fill="url(#paint7_linear)"/>
    <rect x="742.514" y="939" width="206.143" height="21" fill="#505F98"/>
    <rect x="787.545" y="927" width="98.0679" height="12" fill="url(#paint8_linear)"/>
    <path fill-rule="evenodd" clip-rule="evenodd" d="M942.653 353.241V373.715L929.944 373.819C928.707 383.346 925.084 392.41 919.405 400.181L930.26 411.351L915.38 425.6L904.694 414.578C898.105 419.062 890.67 422.17 882.838 423.714V437H862.267V424.029C853.483 422.76 845.11 419.497 837.797 414.494L828.861 423.316L814.297 408.647L823.17 399.993C817.584 392.219 814.021 383.191 812.801 373.715H798.553V353.241H813.306C815.135 345.093 818.732 337.441 823.845 330.819L815.604 322.332L830.484 308.082L838.914 316.82C845.885 312.214 853.809 309.228 862.098 308.082V294H882.669V308.396C891.038 310.055 898.947 313.493 905.853 318.476L916.391 308.166L930.871 322.709L920.333 333.187C924.464 339.267 927.397 346.073 928.974 353.241H942.653ZM836.512 366.15C836.488 385.211 852.011 400.682 871.182 400.705C880.394 400.733 889.238 397.113 895.759 390.644C902.281 384.176 905.943 375.392 905.938 366.233C905.961 347.172 890.438 331.701 871.267 331.678C852.095 331.655 836.535 347.088 836.512 366.15Z" fill="#505F98"/>
    <path fill-rule="evenodd" clip-rule="evenodd" d="M1018.71 387.354L1017.79 399.396L1010.27 398.938C1009.15 404.475 1006.64 409.641 1002.99 413.958L1008.86 421.021L999.507 428.729L993.747 421.792C989.693 424.13 985.206 425.625 980.558 426.188L979.953 434L967.912 433.104L968.496 425.479C963.411 424.344 958.655 422.056 954.598 418.792L948.964 423.583L941.096 414.396L946.668 409.688C943.74 404.876 942.055 399.414 941.764 393.792L933.646 393.167L934.544 381.146L943.162 381.792C944.586 377.085 947.014 372.743 950.278 369.062L945.833 363.708L955.182 356L959.711 361.5C963.982 359.095 968.738 357.672 973.63 357.333L974.256 349L986.297 349.896L985.65 358.375C990.457 359.714 994.915 362.081 998.714 365.312L1005.33 359.708L1013.18 368.896L1006.5 374.583C1008.66 378.339 1010.08 382.477 1010.67 386.771L1018.71 387.354ZM956.008 390.243C955.153 401.436 963.546 411.203 974.757 412.062C980.151 412.487 985.492 410.747 989.597 407.228C993.702 403.708 996.232 398.7 996.627 393.312C997.469 382.119 989.066 372.361 977.854 371.514C966.642 370.666 956.863 379.05 956.008 390.243Z" fill="#505F98"/>
    <path d="M1172.81 500.966V984.819C1172.78 994.846 1164.73 1002.97 1154.8 1003H1152.72C1142.8 1002.95 1134.79 994.827 1134.79 984.819V500.966L1152.86 453L1172.81 500.966Z" fill="#505F98"/>
    <rect x="1151.8" y="501" width="21.0146" height="463" fill="url(#paint9_linear)"/>
    <path opacity="0.65" d="M1172.81 501L1134.79 500.269L1146.5 468.204L1152.79 451L1159.69 468.204L1172.81 501Z" fill="url(#paint10_linear)"/>
    <path d="M1159.8 469H1146.79L1152.99 452L1159.8 469Z" fill="url(#paint11_linear)"/>
    <rect x="1132.78" y="957" width="40.0277" height="17" fill="url(#paint12_linear)"/>
    <path d="M1172.81 970V985.38C1172.78 995.649 1164.73 1003.96 1154.8 1004H1152.72C1142.8 1003.95 1134.79 995.63 1134.79 985.38V970H1172.81Z" fill="url(#paint13_linear)"/>
    <path d="M1080.75 554.513V561H592.41V554.513C592.399 549.614 594.325 544.912 597.764 541.44C601.203 537.968 605.874 536.011 610.749 536H1062.41C1067.29 536.006 1071.96 537.961 1075.4 541.434C1078.84 544.907 1080.76 549.613 1080.75 554.513Z" fill="url(#paint14_linear)"/>
    <rect x="602.417" y="593" width="47.0326" height="227" fill="url(#paint15_linear)"/>
    <rect x="720.499" y="609" width="221.153" height="209" fill="url(#paint16_linear)"/>
    <rect x="771.534" y="707" width="7.00485" height="9" fill="url(#paint17_linear)"/>
    <rect x="771.534" y="665" width="7.00485" height="9" fill="url(#paint18_linear)"/>
    <rect x="676.468" y="707" width="7.00485" height="9" fill="url(#paint19_linear)"/>
    <rect x="676.468" y="665" width="7.00485" height="9" fill="url(#paint20_linear)"/>
    <rect x="771.534" y="620" width="7.00485" height="9" fill="url(#paint21_linear)"/>
    <rect x="677.469" y="620" width="7.00485" height="9" fill="url(#paint22_linear)"/>
    <rect x="725.502" y="620" width="7.00485" height="9" fill="url(#paint23_linear)"/>
    <rect x="725.502" y="707" width="7.00485" height="9" fill="url(#paint24_linear)"/>
    <path fill-rule="evenodd" clip-rule="evenodd" d="M689.477 705H767.531V632H689.477V705ZM759.669 697.282H697.339V639.656H759.669V697.282Z" fill="#505F98"/>
    <path fill-rule="evenodd" clip-rule="evenodd" d="M689.477 705H767.531V632H689.477V705ZM759.669 697.282H697.339V639.656H759.669V697.282Z" fill="url(#paint25_linear)"/>
    <rect x="973.674" y="573" width="100.069" height="100" fill="url(#paint26_linear)"/>
    <rect x="973.674" y="683" width="100.069" height="100" fill="url(#paint27_linear)"/>
    <rect opacity="0.65" x="602.417" y="592" width="47.0326" height="13" fill="url(#paint28_linear)"/>
    <path d="M399.381 523.827L604.509 359.293L652.622 419.118L447.493 583.652L399.381 523.827Z" fill="white"/>
    <path d="M428.105 528.455L453.172 508.235L485.755 548.522L460.687 568.742L428.105 528.455Z" fill="#505F98"/>
    <path d="M428.105 528.455L453.172 508.235L485.755 548.522L460.687 568.742L428.105 528.455Z" fill="url(#paint29_linear)"/>
    <path d="M451.723 508.689L476.755 488.56L509.19 528.79L484.157 548.919L451.723 508.689Z" fill="#505F98"/>
    <path d="M451.723 508.689L476.755 488.56L509.19 528.79L484.157 548.919L451.723 508.689Z" fill="url(#paint30_linear)"/>
    <path d="M476.667 488.761L501.699 468.633L534.134 508.863L509.101 528.991L476.667 488.761Z" fill="#505F98"/>
    <path d="M476.667 488.761L501.699 468.633L534.134 508.863L509.101 528.991L476.667 488.761Z" fill="url(#paint31_linear)"/>
    <path d="M501.594 468.847L526.626 448.718L559.061 488.948L534.029 509.077L501.594 468.847Z" fill="#505F98"/>
    <path d="M501.594 468.847L526.626 448.718L559.061 488.948L534.029 509.077L501.594 468.847Z" fill="url(#paint32_linear)"/>
    <path d="M527.714 448.389L552.782 428.169L585.364 468.456L560.297 488.676L527.714 448.389Z" fill="#505F98"/>
    <path d="M552.794 427.99L577.862 407.77L610.444 448.057L585.377 468.277L552.794 427.99Z" fill="#505F98"/>
    <path d="M576.402 409.051L601.434 388.923L633.869 429.153L608.837 449.282L576.402 409.051Z" fill="#505F98"/>
    <path d="M606.42 452.218L585.321 469L553.383 428.782L574.482 412L606.42 452.218Z" fill="url(#paint33_linear)"/>
    <path d="M573.445 411.647L598.477 391.519L630.912 431.749L605.879 451.878L573.445 411.647Z" fill="url(#paint34_linear)"/>
    <path d="M522.362 533.15V656H501.347V533.15C501.347 528.61 504.165 524.57 508.365 523.089V510.825C508.365 508.712 510.041 507 512.109 507C514.176 507 515.852 508.712 515.852 510.825V523.297C519.771 524.935 522.34 528.823 522.362 533.15Z" fill="#505F98"/>
    <path d="M522.362 533.15V656H501.347V533.15C501.347 528.61 504.165 524.57 508.365 523.089V510.825C508.365 508.712 510.041 507 512.109 507C514.176 507 515.852 508.712 515.852 510.825V523.297C519.771 524.935 522.34 528.823 522.362 533.15Z" fill="url(#paint35_linear)"/>
    <rect x="488.338" y="611" width="50.0346" height="9" rx="2.245" fill="#505F98"/>
    <path d="M513.044 693C504.471 693 497.344 680.185 497.344 671.634V615H528.366V671.634C528.366 680.185 521.596 693 513.044 693Z" fill="#505F98"/>
    <rect x="488.338" y="611" width="50.0346" height="9" rx="2.245" fill="url(#paint36_linear)"/>
    <path d="M513.044 693C504.471 693 497.344 680.366 497.344 671.937V620H528.366V671.937C528.366 680.366 521.596 693 513.044 693Z" fill="url(#paint37_linear)"/>
    <path d="M713.136 753C712.463 749.436 712.037 744.39 713.331 744.043C716.059 743.275 713.136 753 713.136 753Z" fill="#28353D"/>
    <path d="M856.395 948.507C855.909 961.102 846.147 1007.39 845.83 1020C845.83 1024.2 846.95 1030.65 845.597 1034.7C842.808 1043.28 832.919 1042.11 831.63 1037.05L831.144 1034.53C826.559 1010.01 833.933 982.198 831.144 950.186C829.475 930.643 821.698 892.963 816.606 892.711C813.922 892.711 752.665 1021.85 747.34 1029.81C744.72 1033.82 737.345 1033.19 733.774 1036.42C730.203 1039.65 763.526 938.515 777.493 885.07C780.751 874.039 782.875 862.709 783.832 851.252C784.213 844.64 782.079 842.415 788.185 840.463C792.411 839.119 798.265 839.497 802.787 839.182C807.71 838.804 853.5 838.72 853.5 841.953C853.056 859.502 857.578 919.412 856.395 948.507Z" fill="#606161"/>
    <path d="M856.395 948.507C855.909 961.102 846.147 1007.39 845.83 1020C845.83 1024.2 846.95 1030.65 845.597 1034.7C842.808 1043.28 832.919 1042.11 831.63 1037.05L831.144 1034.53C826.559 1010.01 833.933 982.198 831.144 950.186C829.475 930.643 821.698 892.963 816.606 892.711C813.922 892.711 752.665 1021.85 747.34 1029.81C744.72 1033.82 737.345 1033.19 733.774 1036.42C730.203 1039.65 763.526 938.515 777.493 885.07C780.751 874.039 782.875 862.709 783.832 851.252C784.213 844.64 782.079 842.415 788.185 840.463C792.411 839.119 798.265 839.497 802.787 839.182C807.71 838.804 853.5 838.72 853.5 841.953C853.056 859.502 857.578 919.412 856.395 948.507Z" fill="url(#paint38_linear)"/>
    <path d="M802.322 680.148C801.937 676.163 800.054 674 798.214 674C796.375 674 795.241 676.12 795.626 680.148C795.713 683.122 797.957 685.597 800.931 686C802.793 686 802.728 684.134 802.322 680.148Z" fill="#FFCD9C"/>
    <path d="M834.716 680.159C834.966 676.166 836.803 674 838.702 674C840.601 674 841.832 676.124 841.54 680.159C841.513 683.173 839.268 685.687 836.323 686C834.444 686 834.424 684.152 834.716 680.159Z" fill="#FFCD9C"/>
    <path d="M838.44 697.672C838.181 699.777 829.266 709 819.121 709C808.976 709 800.6 700.577 798.83 697.208C797.06 693.839 804.184 650.505 808.306 646.884C812.429 643.262 829.137 645.641 830.54 647.558C833.907 652.085 839.541 689.27 838.44 697.672Z" fill="#F4AD7D"/>
    <path d="M834.246 664.977C832.867 665.639 827.451 651.842 826.316 649.525C825.18 647.208 825.362 644.829 826.742 644.167C828.121 643.505 830.149 644.871 831.285 647.167C832.421 649.463 835.605 664.336 834.246 664.977Z" fill="#FFCD9C"/>
    <path d="M803.876 663.987C802.445 663.501 806.233 649.179 807.059 646.703C807.885 644.228 809.739 642.599 811.089 643.086C812.439 643.573 813.003 645.984 812.177 648.481C811.351 650.977 805.226 664.474 803.876 663.987Z" fill="#FFCD9C"/>
    <path d="M809.553 696H831.316L834.578 716.622C822.722 723.005 815.809 722.301 806.558 715.214L809.553 696Z" fill="#F4AD7D"/>
    <path d="M818.567 700.13C818.567 699.75 819.472 699.43 820.568 699.43C821.664 699.43 822.57 699.75 822.57 700.13C822.57 700.51 821.688 700.57 820.568 700.57C819.448 700.57 818.567 700.53 818.567 700.13Z" fill="#F4AD7D"/>
    <path d="M839.6 690.808C840.424 685.894 841.768 650.708 838.473 646.051C835.177 641.394 815.449 638.381 812.457 639.108C805.758 640.731 806.929 645.517 806.929 645.517C804.938 645.547 802.989 646.084 801.271 647.076C798.973 648.615 794.138 670.79 797.997 687.56C799.731 695.102 806.56 701.66 818.354 701.981C832.879 702.365 838.603 696.896 839.6 690.808Z" fill="#606161"/>
    <path d="M812.539 640.762C814.098 639.448 816.118 638.828 818.138 639.041C824.271 639.008 830.355 640.14 836.073 642.376C839.243 643.488 842.122 645.311 844.493 647.708C846.88 650.173 847.979 653.627 847.461 657.034C846.408 662.047 841.146 665.148 839.42 669.97C838.03 673.837 839.02 677.575 839.062 681.463C839.09 684.606 838.864 687.746 838.388 690.852C837.42 696.906 831.884 702.344 817.675 701.983C806.224 701.664 799.593 695.143 797.909 687.644C795.629 675.198 796.227 662.389 799.656 650.215C805.828 651.648 812.142 652.361 818.475 652.339C825.19 652.395 831.886 651.611 838.409 650.002C839.525 656.503 839.504 669.524 839.146 679.253" fill="#606161"/>
    <path d="M777.41 712.954C773.976 713.241 770.668 714.384 767.785 716.28C762.847 720.171 762.472 727.43 762.556 733.748C762.386 742.501 762.993 751.252 764.368 759.897C765.847 767.826 768.535 775.441 770.743 783.202C774.224 795.831 776.052 808.862 776.181 821.966C776.181 829.162 776.056 837.07 780.535 842.697C785.431 848.806 794.098 849.998 801.89 850.438C812.953 851.086 824.057 851.17 835.12 850.709C842.537 850.375 850.433 849.643 856.308 845.082C860.996 841.442 871.975 718.288 863.454 715.171C854.933 712.054 845.766 711.259 836.724 710.506C816.453 708.791 797.369 707.431 777.41 712.954Z" fill="#505F98"/>
    <path d="M841.23 968.291C840.143 982.255 837.551 1033 837.551 1033L830.946 1032.77C826.41 1008.39 833.705 980.732 830.946 948.899C829.295 929.465 821.603 891.996 816.565 891.746C818.07 879.221 826.536 881.1 826.536 881.1C832.692 890.294 838.002 900.026 842.4 910.178C847.437 923.37 842.337 954.263 841.23 968.291Z" fill="url(#paint39_linear)"/>
    <path d="M716.873 1034.02C715.841 1034.79 715.058 1035.83 714.621 1037.03C714.386 1038.01 714.481 1039.04 714.892 1039.97C716.058 1042.33 718.268 1044.02 720.876 1044.55C723.452 1045.04 726.091 1045.13 728.695 1044.82L737.036 1044.26C739.158 1044.21 741.263 1043.87 743.292 1043.26C745.322 1042.63 746.997 1041.2 747.921 1039.31C748.412 1037.92 748.603 1036.44 748.484 1034.97C748.484 1028.16 746.065 1022.63 738.516 1024.3C730.61 1025.77 723.182 1029.1 716.873 1034.02Z" fill="#505F98"/>
    <path d="M855.411 1037.06C856.358 1037.76 857.077 1038.71 857.478 1039.8C857.692 1040.68 857.608 1041.61 857.239 1042.45C856.176 1044.58 854.146 1046.11 851.755 1046.58C849.398 1047.04 846.981 1047.12 844.596 1046.83L837.024 1046.33C835.098 1046.28 833.187 1045.98 831.344 1045.43C829.487 1044.86 827.958 1043.57 827.123 1041.85C826.675 1040.59 826.498 1039.26 826.601 1037.93C826.601 1031.79 828.777 1026.72 835.718 1028.29C842.914 1029.62 849.672 1032.63 855.411 1037.06Z" fill="#505F98"/>
    <path d="M864.599 715C864.599 715 897.314 734.163 907.14 758.389C916.965 782.614 874.96 841 874.96 841L865.972 831.814C865.972 831.814 887.896 787.759 884.507 776.74C881.117 765.721 867.838 755.452 867.838 755.452L864.599 715Z" fill="#505F98"/>
    <path d="M771.534 752.859C771.534 752.859 726.046 773.24 707.561 763.238C689.076 753.237 708.106 703 708.106 703L720.486 707.202C720.486 707.202 710.142 732.815 721.975 736.618C733.809 740.421 769.268 715.438 769.268 715.438L771.534 752.859Z" fill="#505F98"/>
    <path d="M857.175 839.976C855.866 840.826 854.806 841.968 854.09 843.297C853.66 844.425 853.505 845.629 853.637 846.819C853.557 849.709 854.872 852.479 857.218 854.367C858.866 855.25 860.713 855.76 862.611 855.857C863.774 856.048 864.964 856.048 866.127 855.857C867.314 855.646 868.305 854.888 868.759 853.844C868.914 853.183 868.98 852.507 868.953 851.831C869.104 848.51 871.607 845.793 873.678 843.076C874.178 842.551 874.501 841.9 874.606 841.204C874.594 840.434 874.305 839.69 873.786 839.091C872.384 837.199 868.91 833.717 866.127 834.018C863.344 834.32 859.332 838.326 857.175 839.976Z" fill="#F4AD7D"/>
    <path d="M728.293 695.435C728.886 694.611 729.29 693.679 729.48 692.698C729.631 691.683 729.094 690.687 728.14 690.211C726.624 689.647 724.822 691.13 723.328 690.504C722.822 690.235 722.398 689.846 722.097 689.375C720.333 686.945 719.321 684.093 719.175 681.143C719.261 679.571 719.113 677.995 718.736 676.463C718.292 674.886 716.708 673.849 715.001 674.018C713.594 674.331 712.804 675.689 711.925 676.776C711.046 677.863 709.288 679.158 708.146 680.516C706.195 683.307 705.078 686.55 704.916 689.898C704.301 694.077 703.905 698.861 706.981 701.87C709.354 704.189 716.583 706.927 719.9 705.694C723.57 704.315 726.448 698.444 728.293 695.435Z" fill="#F4AD7D"/>
    <defs>
        <linearGradient id="paint0_linear" x1="528.11" y1="609.166" x2="592.864" y2="480.6" gradientUnits="userSpaceOnUse">
            <stop stop-color="#010101" stop-opacity="0.01"/>
            <stop offset="0.95" stop-color="#010101"/>
        </linearGradient>
        <linearGradient id="paint1_linear" x1="583.271" y1="605.365" x2="676.125" y2="423.775" gradientUnits="userSpaceOnUse">
            <stop stop-color="#010101" stop-opacity="0.01"/>
            <stop offset="0.95" stop-color="#010101"/>
        </linearGradient>
        <linearGradient id="paint2_linear" x1="703.253" y1="614.092" x2="840.607" y2="303.948" gradientUnits="userSpaceOnUse">
            <stop stop-color="#010101" stop-opacity="0.01"/>
            <stop offset="0.95" stop-color="#010101"/>
        </linearGradient>
        <linearGradient id="paint3_linear" x1="831.087" y1="630.583" x2="1036.02" y2="183.179" gradientUnits="userSpaceOnUse">
            <stop stop-color="#010101" stop-opacity="0.01"/>
            <stop offset="0.36" stop-color="#010101" stop-opacity="0.36"/>
            <stop offset="0.95" stop-color="#010101"/>
        </linearGradient>
        <linearGradient id="paint4_linear" x1="682.434" y1="525.564" x2="799.594" y2="283.969" gradientUnits="userSpaceOnUse">
            <stop stop-color="white" stop-opacity="0.01"/>
            <stop offset="0.07" stop-color="white" stop-opacity="0.22"/>
            <stop offset="0.16" stop-color="white" stop-opacity="0.45"/>
            <stop offset="0.25" stop-color="white" stop-opacity="0.65"/>
            <stop offset="0.33" stop-color="white" stop-opacity="0.8"/>
            <stop offset="0.4" stop-color="white" stop-opacity="0.91"/>
            <stop offset="0.46" stop-color="white" stop-opacity="0.98"/>
            <stop offset="0.51" stop-color="white"/>
        </linearGradient>
        <linearGradient id="paint5_linear" x1="604.358" y1="472.444" x2="668.555" y2="336.555" gradientUnits="userSpaceOnUse">
            <stop stop-color="white" stop-opacity="0.01"/>
            <stop offset="0.07" stop-color="white" stop-opacity="0.22"/>
            <stop offset="0.16" stop-color="white" stop-opacity="0.45"/>
            <stop offset="0.25" stop-color="white" stop-opacity="0.65"/>
            <stop offset="0.33" stop-color="white" stop-opacity="0.8"/>
            <stop offset="0.4" stop-color="white" stop-opacity="0.91"/>
            <stop offset="0.46" stop-color="white" stop-opacity="0.98"/>
            <stop offset="0.51" stop-color="white"/>
        </linearGradient>
        <linearGradient id="paint6_linear" x1="909.68" y1="935.322" x2="920.101" y2="808.584" gradientUnits="userSpaceOnUse">
            <stop stop-color="#010101" stop-opacity="0.01"/>
            <stop offset="0.95" stop-color="#010101"/>
        </linearGradient>
        <linearGradient id="paint7_linear" x1="507.967" y1="472.517" x2="505.252" y2="922.071" gradientUnits="userSpaceOnUse">
            <stop stop-color="white" stop-opacity="0.01"/>
            <stop offset="0.07" stop-color="white" stop-opacity="0.22"/>
            <stop offset="0.16" stop-color="white" stop-opacity="0.45"/>
            <stop offset="0.25" stop-color="white" stop-opacity="0.65"/>
            <stop offset="0.33" stop-color="white" stop-opacity="0.8"/>
            <stop offset="0.4" stop-color="white" stop-opacity="0.91"/>
            <stop offset="0.46" stop-color="white" stop-opacity="0.98"/>
            <stop offset="0.51" stop-color="white"/>
        </linearGradient>
        <linearGradient id="paint8_linear" x1="254.313" y1="910.073" x2="254.413" y2="1052.31" gradientUnits="userSpaceOnUse">
            <stop stop-color="#010101" stop-opacity="0.01"/>
            <stop offset="0.95" stop-color="#010101"/>
        </linearGradient>
        <linearGradient id="paint9_linear" x1="1130.81" y1="4103.09" x2="1437" y2="4103.14" gradientUnits="userSpaceOnUse">
            <stop stop-color="#010101" stop-opacity="0.01"/>
            <stop offset="0.95" stop-color="#010101"/>
        </linearGradient>
        <linearGradient id="paint10_linear" x1="1140.2" y1="495.349" x2="1170.54" y2="496.669" gradientUnits="userSpaceOnUse">
            <stop stop-color="white" stop-opacity="0.01"/>
            <stop offset="0.07" stop-color="white" stop-opacity="0.22"/>
            <stop offset="0.16" stop-color="white" stop-opacity="0.45"/>
            <stop offset="0.25" stop-color="white" stop-opacity="0.65"/>
            <stop offset="0.33" stop-color="white" stop-opacity="0.8"/>
            <stop offset="0.4" stop-color="white" stop-opacity="0.91"/>
            <stop offset="0.46" stop-color="white" stop-opacity="0.98"/>
            <stop offset="0.51" stop-color="white"/>
        </linearGradient>
        <linearGradient id="paint11_linear" x1="1148.66" y1="467.191" x2="1159.01" y2="467.64" gradientUnits="userSpaceOnUse">
            <stop stop-color="#010101" stop-opacity="0.01"/>
            <stop offset="0.95" stop-color="#010101"/>
        </linearGradient>
        <linearGradient id="paint12_linear" x1="1072.03" y1="937.811" x2="1072.34" y2="1005.82" gradientUnits="userSpaceOnUse">
            <stop stop-color="#010101" stop-opacity="0.01"/>
            <stop offset="0.95" stop-color="#010101"/>
        </linearGradient>
        <linearGradient id="paint13_linear" x1="1140.83" y1="928.281" x2="1082.49" y2="1000.56" gradientUnits="userSpaceOnUse">
            <stop stop-color="#010101" stop-opacity="0.01"/>
            <stop offset="0.95" stop-color="#010101"/>
        </linearGradient>
        <linearGradient id="paint14_linear" x1="1406.73" y1="655.966" x2="1440.91" y2="248.855" gradientUnits="userSpaceOnUse">
            <stop stop-color="white" stop-opacity="0.01"/>
            <stop offset="0.07" stop-color="white" stop-opacity="0.22"/>
            <stop offset="0.16" stop-color="white" stop-opacity="0.45"/>
            <stop offset="0.25" stop-color="white" stop-opacity="0.65"/>
            <stop offset="0.33" stop-color="white" stop-opacity="0.8"/>
            <stop offset="0.4" stop-color="white" stop-opacity="0.91"/>
            <stop offset="0.46" stop-color="white" stop-opacity="0.98"/>
            <stop offset="0.51" stop-color="white"/>
        </linearGradient>
        <linearGradient id="paint15_linear" x1="579.846" y1="545.87" x2="717.853" y2="914.142" gradientUnits="userSpaceOnUse">
            <stop stop-color="white" stop-opacity="0.01"/>
            <stop offset="0.07" stop-color="white" stop-opacity="0.22"/>
            <stop offset="0.16" stop-color="white" stop-opacity="0.45"/>
            <stop offset="0.25" stop-color="white" stop-opacity="0.65"/>
            <stop offset="0.33" stop-color="white" stop-opacity="0.8"/>
            <stop offset="0.4" stop-color="white" stop-opacity="0.91"/>
            <stop offset="0.46" stop-color="white" stop-opacity="0.98"/>
            <stop offset="0.51" stop-color="white"/>
        </linearGradient>
        <linearGradient id="paint16_linear" x1="683.376" y1="568.99" x2="680.051" y2="851.698" gradientUnits="userSpaceOnUse">
            <stop stop-color="white" stop-opacity="0.01"/>
            <stop offset="0.07" stop-color="white" stop-opacity="0.22"/>
            <stop offset="0.16" stop-color="white" stop-opacity="0.45"/>
            <stop offset="0.25" stop-color="white" stop-opacity="0.65"/>
            <stop offset="0.33" stop-color="white" stop-opacity="0.8"/>
            <stop offset="0.4" stop-color="white" stop-opacity="0.91"/>
            <stop offset="0.46" stop-color="white" stop-opacity="0.98"/>
            <stop offset="0.51" stop-color="white"/>
        </linearGradient>
        <linearGradient id="paint17_linear" x1="999.211" y1="760.704" x2="1018.4" y2="182.785" gradientUnits="userSpaceOnUse">
            <stop stop-color="#010101" stop-opacity="0.01"/>
            <stop offset="0.95" stop-color="#010101"/>
        </linearGradient>
        <linearGradient id="paint18_linear" x1="998.359" y1="761.045" x2="1017.55" y2="183.125" gradientUnits="userSpaceOnUse">
            <stop stop-color="#010101" stop-opacity="0.01"/>
            <stop offset="0.95" stop-color="#010101"/>
        </linearGradient>
        <linearGradient id="paint19_linear" x1="904.18" y1="758.354" x2="923.396" y2="180.435" gradientUnits="userSpaceOnUse">
            <stop stop-color="#010101" stop-opacity="0.01"/>
            <stop offset="0.95" stop-color="#010101"/>
        </linearGradient>
        <linearGradient id="paint20_linear" x1="903.328" y1="758.694" x2="922.544" y2="180.776" gradientUnits="userSpaceOnUse">
            <stop stop-color="#010101" stop-opacity="0.01"/>
            <stop offset="0.95" stop-color="#010101"/>
        </linearGradient>
        <linearGradient id="paint21_linear" x1="997.42" y1="762.545" x2="1016.64" y2="184.627" gradientUnits="userSpaceOnUse">
            <stop stop-color="#010101" stop-opacity="0.01"/>
            <stop offset="0.95" stop-color="#010101"/>
        </linearGradient>
        <linearGradient id="paint22_linear" x1="903.39" y1="760.236" x2="922.578" y2="182.317" gradientUnits="userSpaceOnUse">
            <stop stop-color="#010101" stop-opacity="0.01"/>
            <stop offset="0.95" stop-color="#010101"/>
        </linearGradient>
        <linearGradient id="paint23_linear" x1="951.38" y1="761.396" x2="970.596" y2="183.499" gradientUnits="userSpaceOnUse">
            <stop stop-color="#010101" stop-opacity="0.01"/>
            <stop offset="0.95" stop-color="#010101"/>
        </linearGradient>
        <linearGradient id="paint24_linear" x1="953.196" y1="758.843" x2="972.412" y2="180.925" gradientUnits="userSpaceOnUse">
            <stop stop-color="#010101" stop-opacity="0.01"/>
            <stop offset="0.95" stop-color="#010101"/>
        </linearGradient>
        <linearGradient id="paint25_linear" x1="608.118" y1="773.399" x2="840.351" y2="990.094" gradientUnits="userSpaceOnUse">
            <stop stop-color="white" stop-opacity="0.01"/>
            <stop offset="0.07" stop-color="white" stop-opacity="0.22"/>
            <stop offset="0.16" stop-color="white" stop-opacity="0.45"/>
            <stop offset="0.25" stop-color="white" stop-opacity="0.65"/>
            <stop offset="0.33" stop-color="white" stop-opacity="0.8"/>
            <stop offset="0.4" stop-color="white" stop-opacity="0.91"/>
            <stop offset="0.46" stop-color="white" stop-opacity="0.98"/>
            <stop offset="0.51" stop-color="white"/>
        </linearGradient>
        <linearGradient id="paint26_linear" x1="956.985" y1="553.864" x2="955.2" y2="689.026" gradientUnits="userSpaceOnUse">
            <stop stop-color="white" stop-opacity="0.01"/>
            <stop offset="0.07" stop-color="white" stop-opacity="0.22"/>
            <stop offset="0.16" stop-color="white" stop-opacity="0.45"/>
            <stop offset="0.25" stop-color="white" stop-opacity="0.65"/>
            <stop offset="0.33" stop-color="white" stop-opacity="0.8"/>
            <stop offset="0.4" stop-color="white" stop-opacity="0.91"/>
            <stop offset="0.46" stop-color="white" stop-opacity="0.98"/>
            <stop offset="0.51" stop-color="white"/>
        </linearGradient>
        <linearGradient id="paint27_linear" x1="956.985" y1="663.864" x2="955.2" y2="799.026" gradientUnits="userSpaceOnUse">
            <stop stop-color="white" stop-opacity="0.01"/>
            <stop offset="0.07" stop-color="white" stop-opacity="0.22"/>
            <stop offset="0.16" stop-color="white" stop-opacity="0.45"/>
            <stop offset="0.25" stop-color="white" stop-opacity="0.65"/>
            <stop offset="0.33" stop-color="white" stop-opacity="0.8"/>
            <stop offset="0.4" stop-color="white" stop-opacity="0.91"/>
            <stop offset="0.46" stop-color="white" stop-opacity="0.98"/>
            <stop offset="0.51" stop-color="white"/>
        </linearGradient>
        <linearGradient id="paint28_linear" x1="593.145" y1="589.281" x2="593.128" y2="607.481" gradientUnits="userSpaceOnUse">
            <stop stop-color="white" stop-opacity="0.01"/>
            <stop offset="0.07" stop-color="white" stop-opacity="0.22"/>
            <stop offset="0.16" stop-color="white" stop-opacity="0.45"/>
            <stop offset="0.25" stop-color="white" stop-opacity="0.65"/>
            <stop offset="0.33" stop-color="white" stop-opacity="0.8"/>
            <stop offset="0.4" stop-color="white" stop-opacity="0.91"/>
            <stop offset="0.46" stop-color="white" stop-opacity="0.98"/>
            <stop offset="0.51" stop-color="white"/>
        </linearGradient>
        <linearGradient id="paint29_linear" x1="512.445" y1="642.052" x2="625.876" y2="552.635" gradientUnits="userSpaceOnUse">
            <stop stop-color="#010101" stop-opacity="0.01"/>
            <stop offset="0.95" stop-color="#010101"/>
        </linearGradient>
        <linearGradient id="paint30_linear" x1="562.284" y1="661.988" x2="723.56" y2="536.867" gradientUnits="userSpaceOnUse">
            <stop stop-color="#010101" stop-opacity="0.01"/>
            <stop offset="0.95" stop-color="#010101"/>
        </linearGradient>
        <linearGradient id="paint31_linear" x1="667.228" y1="720.751" x2="923.392" y2="498.028" gradientUnits="userSpaceOnUse">
            <stop stop-color="#010101" stop-opacity="0.01"/>
            <stop offset="0.95" stop-color="#010101"/>
        </linearGradient>
        <linearGradient id="paint32_linear" x1="775.987" y1="789.865" x2="1151.67" y2="471.45" gradientUnits="userSpaceOnUse">
            <stop stop-color="#010101" stop-opacity="0.01"/>
            <stop offset="0.36" stop-color="#010101" stop-opacity="0.36"/>
            <stop offset="0.95" stop-color="#010101"/>
        </linearGradient>
        <linearGradient id="paint33_linear" x1="624.246" y1="552.751" x2="807.185" y2="421.322" gradientUnits="userSpaceOnUse">
            <stop stop-color="white" stop-opacity="0.01"/>
            <stop offset="0.07" stop-color="white" stop-opacity="0.22"/>
            <stop offset="0.16" stop-color="white" stop-opacity="0.45"/>
            <stop offset="0.25" stop-color="white" stop-opacity="0.65"/>
            <stop offset="0.33" stop-color="white" stop-opacity="0.8"/>
            <stop offset="0.4" stop-color="white" stop-opacity="0.91"/>
            <stop offset="0.46" stop-color="white" stop-opacity="0.98"/>
            <stop offset="0.51" stop-color="white"/>
        </linearGradient>
        <linearGradient id="paint34_linear" x1="637.859" y1="550.517" x2="753.717" y2="454.658" gradientUnits="userSpaceOnUse">
            <stop stop-color="white" stop-opacity="0.01"/>
            <stop offset="0.07" stop-color="white" stop-opacity="0.22"/>
            <stop offset="0.16" stop-color="white" stop-opacity="0.45"/>
            <stop offset="0.25" stop-color="white" stop-opacity="0.65"/>
            <stop offset="0.33" stop-color="white" stop-opacity="0.8"/>
            <stop offset="0.4" stop-color="white" stop-opacity="0.91"/>
            <stop offset="0.46" stop-color="white" stop-opacity="0.98"/>
            <stop offset="0.51" stop-color="white"/>
        </linearGradient>
        <linearGradient id="paint35_linear" x1="503.446" y1="716.745" x2="541.631" y2="716.767" gradientUnits="userSpaceOnUse">
            <stop stop-color="white" stop-opacity="0.01"/>
            <stop offset="0.07" stop-color="white" stop-opacity="0.22"/>
            <stop offset="0.16" stop-color="white" stop-opacity="0.45"/>
            <stop offset="0.25" stop-color="white" stop-opacity="0.65"/>
            <stop offset="0.33" stop-color="white" stop-opacity="0.8"/>
            <stop offset="0.4" stop-color="white" stop-opacity="0.91"/>
            <stop offset="0.46" stop-color="white" stop-opacity="0.98"/>
            <stop offset="0.51" stop-color="white"/>
        </linearGradient>
        <linearGradient id="paint36_linear" x1="430.154" y1="619.2" x2="441.805" y2="657.932" gradientUnits="userSpaceOnUse">
            <stop stop-color="#010101" stop-opacity="0.01"/>
            <stop offset="0.95" stop-color="#010101"/>
        </linearGradient>
        <linearGradient id="paint37_linear" x1="454.952" y1="767.933" x2="555.854" y2="769.976" gradientUnits="userSpaceOnUse">
            <stop stop-color="#010101" stop-opacity="0.01"/>
            <stop offset="0.95" stop-color="#010101"/>
        </linearGradient>
        <linearGradient id="paint38_linear" x1="857.723" y1="925.512" x2="761.63" y2="760.732" gradientUnits="userSpaceOnUse">
            <stop stop-color="#010101" stop-opacity="0.01"/>
            <stop offset="0.95" stop-color="#010101"/>
        </linearGradient>
        <linearGradient id="paint39_linear" x1="858.745" y1="463.892" x2="685.86" y2="468.761" gradientUnits="userSpaceOnUse">
            <stop stop-color="#010101" stop-opacity="0.01"/>
            <stop offset="0.95" stop-color="#010101"/>
        </linearGradient>
    </defs>
</svg>
