<svg width="540" height="389" viewBox="0 0 540 389" fill="none" xmlns="http://www.w3.org/2000/svg">
<path d="M540 233.484C540 301.139 499.706 324.761 450 324.761C400.294 324.761 360 301.139 360 233.484C360 165.829 450 79.7615 450 79.7615C450 79.7615 540 165.829 540 233.484Z" fill="#F2F2F2"/>
<path d="M446.955 314.639L447.871 257.963L486 187.848L448.015 249.073L448.427 223.589L474.705 172.861L448.535 216.845V216.845L449.276 171.011L477.416 130.625L449.392 163.804L449.855 79.7615L446.947 191.019L447.186 186.429L418.576 142.411L446.727 195.24L444.061 246.428L443.982 245.069L411 198.747L443.882 249.869L443.549 256.27L443.489 256.367L443.516 256.892L436.753 386.761H445.789L446.873 319.682L479.675 268.684L446.955 314.639Z" fill="#3F3D56"/>
<path d="M49 346.172C49 364.398 38.031 370.761 24.5 370.761C10.969 370.761 0 364.398 0 346.172C0 327.947 24.5 304.761 24.5 304.761C24.5 304.761 49 327.947 49 346.172Z" fill="#F2F2F2"/>
<path d="M23.5881 367.263L23.8321 351.94L34 332.983L23.8705 349.536L23.9803 342.646L30.988 328.931L24.0095 340.823L24.2069 328.431L31.7111 317.513L24.2382 326.483L24.3616 303.761L23.586 333.84L23.6493 332.6L16.0201 320.699L23.527 334.982L22.8164 348.821L22.7953 348.454L14 335.93L22.7682 349.751L22.6795 351.482L22.6638 351.508L22.6709 351.65L20.8671 386.761H23.2772L23.566 368.626L32.3136 354.838L23.5881 367.263Z" fill="#3F3D56"/>
<path d="M3 387.261H492" stroke="#3F3D56" stroke-width="2"/>
<path d="M493 370.996C493 383.423 485.613 387.761 476.5 387.761C476.289 387.761 476.078 387.759 475.868 387.754C475.445 387.745 475.027 387.725 474.614 387.697C466.39 387.115 460 382.553 460 370.996C460 359.036 475.284 343.945 476.432 342.828L476.434 342.826C476.478 342.783 476.5 342.761 476.5 342.761C476.5 342.761 493 358.57 493 370.996Z" fill="#111B47"/>
<path d="M475.712 385.867L481.819 377.433L475.696 386.793L475.68 387.761C475.253 387.752 474.83 387.732 474.411 387.704L475.07 375.27L475.065 375.173L475.076 375.155L475.138 373.981L469 364.598L475.157 373.1L475.171 373.349L475.669 363.954L470.414 354.259L475.733 362.305L476.251 342.828L476.253 342.761V342.826L476.166 358.185L481.398 352.096L476.145 359.508L476.007 367.92L480.891 359.847L475.986 369.158L475.909 373.834L483 362.598L475.883 375.466L475.712 385.867Z" fill="#3F3D56"/>
<rect x="313" y="88.7615" width="6" height="47" rx="2.29166" fill="#3F3D56"/>
<rect x="124" y="51.7615" width="3" height="15" rx="1.5" fill="#3F3D56"/>
<rect x="124" y="79.7615" width="4" height="27" rx="1.6946" fill="#3F3D56"/>
<rect x="124" y="116.761" width="3" height="27" rx="1.5" fill="#3F3D56"/>
<rect x="126" y="0.761475" width="190" height="386" rx="35.694" fill="#3F3D56"/>
<rect x="202" y="12.7615" width="27" height="5" rx="2.5" fill="#E6E8EC"/>
<path d="M236 17.7615C237.657 17.7615 239 16.4183 239 14.7615C239 13.1046 237.657 11.7615 236 11.7615C234.343 11.7615 233 13.1046 233 14.7615C233 16.4183 234.343 17.7615 236 17.7615Z" fill="#E6E8EC"/>
<path d="M305 25.8511V361.677C304.998 370.01 298.223 376.763 289.867 376.761H153.133C144.777 376.763 138.002 370.01 138 361.677V25.8511C138 21.849 139.594 18.0107 142.432 15.1808C145.27 12.3508 149.119 10.7611 153.133 10.7615H173.594V13.3819C173.596 20.2433 179.174 25.8051 186.055 25.8071H255.592C262.474 25.8071 268.053 20.2442 268.053 13.3819V10.7615H289.867C293.881 10.7611 297.73 12.3508 300.568 15.1808C303.406 18.0107 305 21.849 305 25.8511Z" fill="white"/>
<rect x="138" y="88.7615" width="167" height="192" fill="#F2F2F2"/>
<path d="M150 306.761L149.13 305.982C146.04 303.165 144.001 301.336 144.001 299.059C143.985 298.183 144.327 297.339 144.949 296.717C145.57 296.096 146.419 295.752 147.3 295.762C148.343 295.767 149.33 296.228 150 297.021C150.67 296.228 151.657 295.767 152.7 295.762C153.581 295.752 154.43 296.096 155.051 296.717C155.673 297.339 156.015 298.183 155.999 299.059C155.999 301.336 153.96 303.165 150.87 305.982L150 306.761Z" fill="#FF6584"/>
<path d="M181 304.299L182.734 304.761C183.363 303.06 184.85 301.756 186.709 301.277C188.568 300.798 190.561 301.205 192.036 302.365L189.387 304.761H196V298.761L193.335 301.146C191.4 299.562 188.741 298.99 186.258 299.625C183.776 300.26 181.8 302.015 181 304.299L181 304.299Z" fill="#F2F2F2"/>
<path d="M148.5 74.7615C152.642 74.7615 156 71.4036 156 67.2615C156 63.1193 152.642 59.7615 148.5 59.7615C144.358 59.7615 141 63.1193 141 67.2615C141 71.4036 144.358 74.7615 148.5 74.7615Z" fill="#111B47"/>
<rect x="162" y="62.7615" width="72" height="9" fill="#111B47"/>
<rect x="143" y="319.761" width="72" height="9" fill="#F2F2F2"/>
<rect x="144" y="338.761" width="151" height="9" fill="#F2F2F2"/>
<path d="M174 306.761L172.156 303.475C173.068 301.245 172.229 298.672 170.189 297.44C168.149 296.208 165.53 296.693 164.046 298.578C162.563 300.462 162.668 303.171 164.292 304.931C165.916 306.691 168.564 306.966 170.503 305.574L174 306.761Z" fill="#F2F2F2"/>
<path d="M206.555 133.212H206.555C200.85 134.391 195.842 137.812 192.634 142.722C189.425 147.631 188.278 153.627 189.446 159.391L193.977 181.761L199.051 180.713L199.409 178.342L200.472 180.419L231.318 174.042L231.676 171.671L232.739 173.748L237 172.867L232.468 150.496C231.301 144.733 227.915 139.674 223.055 136.432C218.196 133.191 212.26 132.032 206.555 133.212Z" fill="#2F2E41"/>
<path d="M245.647 201.761L272 217.948L268.706 225.761L244 214.041L245.647 201.761Z" fill="#9F616A"/>
<path d="M211.906 220.4C211.906 220.4 158.392 220.4 149.565 234.161C140.738 247.922 147.91 267.187 175.495 271.591C203.079 275.994 286.937 278.196 293.557 261.683C300.178 245.17 295.213 235.812 295.213 235.812C295.213 235.812 266.524 215.996 211.906 220.4Z" fill="#111B47"/>
<path d="M258.606 233.747L288 244.761C288 244.761 300.202 235.95 294.101 226.037C288 216.123 260.269 158.847 260.269 158.847C260.269 158.847 252.505 147.832 262.488 141.774C272.471 135.716 276.353 145.629 276.353 145.629C276.353 145.629 275.799 147.832 279.681 146.18C283.563 144.528 290.774 150.035 286.891 158.847C283.009 167.659 280.236 169.862 288.555 169.311C291.559 169.112 294.202 166.974 296.352 164.323C300.474 159.243 298.634 155.151 298.322 148.634C297.788 137.471 296.914 130.193 294.101 125.803C290.219 119.745 284.673 114.788 270.253 117.542C255.833 120.295 234.757 134.064 239.749 153.89C244.74 173.717 255.833 195.746 255.833 195.746C255.833 195.746 263.597 226.587 258.606 233.747Z" fill="#111B47"/>
<path opacity="0.1" d="M259 233.538C254.238 234.852 248.257 235.492 241.82 235.691C230.587 236.039 217.943 235.045 207.845 233.919C196.937 232.699 189 231.33 189 231.33C192.687 227.885 198.354 226.522 205.012 226.025C213.28 225.406 223.08 226.113 232.543 225.809C236.032 225.687 239.524 225.95 242.955 226.593C253.395 228.586 259 233.538 259 233.538Z" fill="black"/>
<path d="M211.5 173.761C220.06 173.761 227 166.822 227 158.261C227 149.701 220.06 142.761 211.5 142.761C202.94 142.761 196 149.701 196 158.261C196 166.822 202.94 173.761 211.5 173.761Z" fill="#9F616A"/>
<path d="M209.253 170.873C209.253 170.873 211.975 181.428 209.253 181.984C206.532 182.539 200 185.317 200 185.317L208.165 188.65L223.405 203.095L236.468 209.761L243 207.539V195.317L233.203 179.761C233.203 179.761 226.671 181.984 225.038 174.761C223.405 167.539 220.139 164.761 220.139 164.761L209.253 170.873Z" fill="#9F616A"/>
<path d="M205.355 185.761H198.739C198.739 185.761 187.159 189.598 180.543 198.368C173.926 207.137 163.45 215.907 163.45 215.907C163.45 215.907 156.282 225.773 160.141 239.475C164.001 253.177 169.515 263.043 174.477 260.303C179.44 257.562 167.309 237.831 167.309 237.831L170.618 225.773C170.618 225.773 187.711 206.041 194.879 206.589C202.047 207.137 202.598 213.166 202.598 213.166L218.037 217.551L223 207.137L220.243 196.175L205.355 185.761Z" fill="#9F616A"/>
<path d="M244.775 220.999C243.739 222.771 242.979 224.69 242.522 226.69C241.838 229.644 241.459 232.661 241.393 235.692C230.22 236.036 217.645 235.053 207.601 233.938C206.713 231.579 205.737 228.864 204.784 226.128C202.212 218.732 199.822 211.184 199.822 210.075C199.822 207.89 211.335 211.714 214.076 211.168C216.817 210.621 217.913 201.882 214.076 197.513C210.238 193.143 199 185.77 199 185.77L202.837 184.677C202.837 184.677 211.335 190.958 228.877 201.336C246.42 211.714 239.293 195.328 239.293 195.328L229.151 179.761H233.537C233.537 179.761 242.034 194.236 246.42 200.79C250.806 207.344 249.161 213.899 244.775 220.999Z" fill="#3F3D56"/>
<path d="M194.366 143.663L222.282 137.95L225.788 155.08L197.872 160.793L194.366 143.663Z" fill="#2F2E41"/>
<path d="M282.5 140.761C287.194 140.761 291 136.956 291 132.261C291 127.567 287.194 123.761 282.5 123.761C277.806 123.761 274 127.567 274 132.261C274 136.956 277.806 140.761 282.5 140.761Z" fill="#3F3D56"/>
<path d="M282.5 136.761C284.985 136.761 287 134.747 287 132.261C287 129.776 284.985 127.761 282.5 127.761C280.015 127.761 278 129.776 278 132.261C278 134.747 280.015 136.761 282.5 136.761Z" fill="white"/>
<path d="M39.4672 226.761L38.8935 231.089C38.6994 232.554 38.5051 234.02 38.4005 235.494C38.0527 240.397 38.7011 245.319 38.5304 250.231C38.3991 254.012 37.7825 257.791 38.0803 261.563C38.3438 264.9 39.3157 268.139 40.2821 271.35L41.6634 275.939C41.6863 276.217 41.8406 276.468 42.0805 276.619C42.3205 276.77 42.6188 276.803 42.8872 276.708L49 276.167C48.6085 274.413 48.1731 272.585 47.9627 270.802C47.7964 269.391 47.6964 267.974 47.592 266.558C47.2667 262.145 46.8984 257.734 46.5302 253.323L45.8832 245.575C45.6026 242.214 45.3186 238.833 44.4527 235.569C43.5897 232.265 41.8731 229.232 39.4672 226.761Z" fill="#111B47"/>
<path opacity="0.1" d="M39.4672 226.761L38.8935 231.089C38.6994 232.554 38.5051 234.02 38.4005 235.494C38.0527 240.397 38.7011 245.319 38.5304 250.231C38.3991 254.012 37.7825 257.791 38.0803 261.563C38.3438 264.9 39.3157 268.139 40.2821 271.35L41.6634 275.939C41.6863 276.217 41.8406 276.468 42.0805 276.619C42.3205 276.77 42.6188 276.803 42.8872 276.708L49 276.167C48.6085 274.413 48.1731 272.585 47.9627 270.802C47.7964 269.391 47.6964 267.974 47.592 266.558C47.2667 262.145 46.8984 257.734 46.5302 253.323L45.8832 245.575C45.6026 242.214 45.3186 238.833 44.4527 235.569C43.5897 232.265 41.8731 229.232 39.4672 226.761Z" fill="black"/>
<path d="M50.8466 376.201C50.4903 376.9 50.1802 377.621 49.9183 378.36C49.2235 380.4 49.1185 382.587 49.0197 384.741C48.9722 385.156 49.0108 385.577 49.1329 385.977C49.4299 386.751 50.286 387.143 51.0862 387.358C54.4378 388.26 57.9716 387.411 61.4284 387.102C64.8213 386.798 68.2776 387.018 71.6008 386.269C72.092 386.177 72.5667 386.012 73.0095 385.78C73.852 385.232 74.4804 384.411 74.7895 383.454C74.8906 383.21 74.9586 382.953 74.9916 382.69C75.1014 381.557 74.1143 380.573 73.0392 380.2C71.9641 379.828 70.7951 379.889 69.6633 379.773C64.8768 379.281 61.0155 375.638 60.245 370.886C60.2049 370.639 54.6487 370.785 54.0639 371.106C53.3794 371.481 52.9651 372.419 52.5795 373.053C51.9564 374.076 51.3788 375.126 50.8466 376.201Z" fill="#3F3D56"/>
<path opacity="0.1" d="M50.8466 376.201C50.4903 376.9 50.1802 377.621 49.9183 378.36C49.2235 380.4 49.1185 382.587 49.0197 384.741C48.9722 385.156 49.0108 385.577 49.1329 385.977C49.4299 386.751 50.286 387.143 51.0862 387.358C54.4378 388.26 57.9716 387.411 61.4284 387.102C64.8213 386.798 68.2776 387.018 71.6008 386.269C72.092 386.177 72.5667 386.012 73.0095 385.78C73.852 385.232 74.4804 384.411 74.7895 383.454C74.8906 383.21 74.9586 382.953 74.9916 382.69C75.1014 381.557 74.1143 380.573 73.0392 380.2C71.9641 379.828 70.7951 379.889 69.6633 379.773C64.8768 379.281 61.0155 375.638 60.245 370.886C60.2049 370.639 54.6487 370.785 54.0639 371.106C53.3794 371.481 52.9651 372.419 52.5795 373.053C51.9564 374.076 51.3788 375.126 50.8466 376.201Z" fill="black"/>
<path d="M59.8466 376.201C59.4903 376.9 59.1802 377.621 58.9183 378.36C58.2235 380.4 58.1185 382.587 58.0197 384.741C57.9722 385.156 58.0108 385.577 58.1329 385.977C58.4299 386.751 59.286 387.143 60.0862 387.358C63.4378 388.26 66.9716 387.411 70.4284 387.102C73.8213 386.798 77.2776 387.018 80.6008 386.269C81.092 386.177 81.5667 386.012 82.0095 385.78C82.852 385.232 83.4804 384.411 83.7895 383.454C83.8906 383.21 83.9586 382.953 83.9916 382.69C84.1014 381.557 83.1143 380.573 82.0392 380.2C80.9641 379.828 79.7951 379.889 78.6633 379.773C73.8768 379.281 70.0155 375.638 69.245 370.886C69.2049 370.639 63.6487 370.785 63.0639 371.106C62.3794 371.481 61.9651 372.419 61.5795 373.053C60.9564 374.076 60.3788 375.126 59.8466 376.201Z" fill="#3F3D56"/>
<path d="M82.9989 321.716C83.0691 332.763 79.8876 343.56 76.156 353.944C74.6786 358.054 73.1109 362.129 71.4529 366.168C70.4713 368.561 69.3653 371.217 70.4172 373.58C67.3902 372.417 64.2909 371.729 61.0953 372.267C62.3117 369.763 62.1973 366.849 62.2515 364.062C62.3571 360.278 62.7605 356.508 63.4579 352.788C64.5283 347.128 66.3648 341.644 68.9157 336.49C69.4328 335.403 69.7893 334.246 69.9735 333.054C70.3047 330.405 70.1523 327.717 69.5239 325.123C68.3579 319.377 66.1444 313.9 62.9962 308.971C62.9862 309.08 62.9761 309.192 62.9641 309.301C62.7737 310.944 62.4997 312.576 62.1431 314.19C61.4285 317.612 60.5955 321.035 60.7199 324.475C60.8539 328.123 60.63 331.776 60.0515 335.379C59.8678 336.795 59.5028 338.181 58.9656 339.502C58.6163 340.292 58.1607 341.036 57.8856 341.855C57.6128 342.802 57.4703 343.782 57.4621 344.768C57.0546 353.086 57.4561 363.73 59.1402 371.885C56.3022 371.753 53.482 372.401 50.9806 373.761C48.9452 367.963 47.6485 359.726 46.6789 353.619C45.581 346.405 45.8042 339.048 47.3373 331.915C47.8142 329.535 47.9929 327.104 47.8693 324.679C47.6525 319.849 46.4762 315.125 45.308 310.436C44.7138 308.057 44.1197 305.677 43.5255 303.296C42.6804 299.905 41.834 296.513 40.9863 293.121C40.4242 290.865 39.8562 288.56 40.0328 286.239C40.1569 284.967 40.4215 283.713 40.8217 282.5C42.0862 278.372 43.9767 274.467 46.426 270.924C56.1794 271.478 66.0513 270.555 75.7906 269.799C76.2642 269.705 76.7557 269.789 77.1717 270.036C77.5023 270.377 77.6992 270.827 77.7257 271.303C78.9461 278.282 80.1659 285.26 81.385 292.239C81.9787 295.153 82.3272 298.113 82.4268 301.086C82.4448 304.05 81.9691 307.003 82.0795 309.964C82.228 313.953 82.9748 317.725 82.9989 321.716Z" fill="#2F2E41"/>
<path opacity="0.1" d="M63 309.942C62.806 311.562 62.5268 313.17 62.1634 314.761C60.0015 311.109 57.6719 307.548 55.6818 303.804C55.1684 302.839 54.6796 301.862 54.1887 300.887C53.6999 299.912 53.211 298.937 52.7222 297.962C52.4481 297.414 52.172 296.865 51.9245 296.303C51.5202 295.495 51.2101 294.644 51 293.768C51.724 293.638 53.5076 295.544 54.0434 296.042C55.1427 297.101 56.1806 298.218 57.1523 299.39C58.3281 300.69 59.4074 302.07 60.3819 303.52C61.6274 305.497 62.5132 307.67 63 309.942Z" fill="black"/>
<path d="M72 208.377C72 208.377 66.4486 217.338 67.4766 219.214C68.5047 221.089 50 217.546 50 217.546C50 217.546 60.0748 208.585 59.0467 204.834C58.0187 201.083 72 208.377 72 208.377Z" fill="#EFB7B9"/>
<path d="M66.5 210.761C73.4036 210.761 79 205.165 79 198.261C79 191.358 73.4036 185.761 66.5 185.761C59.5964 185.761 54 191.358 54 198.261C54 205.165 59.5964 210.761 66.5 210.761Z" fill="#EFB7B9"/>
<path d="M71.8634 216.975C70.5287 215.13 68.7168 213.677 66.6195 212.771C65.4121 212.342 64.1639 212.036 62.8941 211.858L57.9192 210.989C56.7 210.776 55.395 210.572 54.2639 211.072C53.6858 211.362 53.1594 211.745 52.7059 212.204C50.9767 213.795 49.301 215.545 47.1331 216.463C46.5396 216.714 45.9189 216.898 45.3263 217.152C42.9007 218.19 41.0871 220.356 40.0567 222.772C38.9757 225.307 38.9444 228.054 39.0297 230.805C39.027 231.755 39.121 232.702 39.3102 233.633C39.5612 234.518 39.8765 235.385 40.2538 236.225C40.9408 238.02 41.5162 239.855 41.9767 241.72C43.2655 246.621 44.337 251.573 45.1911 256.574C45.2656 257.293 45.4784 257.991 45.818 258.63C46.298 259.267 46.8789 259.821 47.5379 260.272C48.0597 260.701 48.542 261.176 48.9792 261.691C49.1924 261.91 49.3488 262.178 49.4346 262.471C49.596 263.211 48.9383 263.844 48.4045 264.384C47.2956 265.508 46.494 266.894 46.0758 268.413C45.8153 268.724 45.6831 269.122 45.7059 269.526C45.8127 269.806 45.8524 270.107 45.8221 270.405C45.7197 270.676 45.5598 270.923 45.3532 271.129C44.8721 271.751 44.6836 272.549 44.8358 273.319C48.7009 274.987 52.8373 275.95 57.0462 276.159C58.0769 276.207 59.1116 276.207 60.1356 276.332C60.866 276.422 61.5875 276.575 62.3184 276.659C63.3817 276.758 64.4505 276.785 65.5175 276.74C71.0675 276.631 76.7804 276.488 81.8769 274.302C82.357 271.705 81.3227 269.059 80.6739 266.498C79.6421 262.426 79.3821 258.202 78.6144 254.073C78.089 251.246 77.3258 248.465 76.8882 245.624C76.4506 242.783 76.348 239.837 77.1341 237.071C77.8308 234.62 78.041 232.124 78.7631 229.681C79.4852 227.237 79.9912 224.587 79.176 222.172C78.1653 219.178 75.0376 216.81 71.8634 216.975Z" fill="#111B47"/>
<path d="M77.8375 192.258C78.4466 190.074 77.2487 187.8 75.8156 186.026C74.2757 184.119 72.286 182.399 69.8565 181.921C67.8821 181.531 65.8362 182.001 63.8287 181.845C62.0493 181.706 60.3443 181.08 58.5741 180.855C56.9728 180.686 55.355 180.746 53.7713 181.034C52.2659 181.249 50.7946 181.653 49.3932 182.235C44.0609 184.555 40.9365 190.284 40.2115 195.967C39.4865 201.65 40.7578 207.375 42.0215 212.966L43.1638 218.02C44.3527 223.28 45.5457 228.568 45.8638 233.947C46.1819 239.326 45.5884 244.849 43.3349 249.761C50.6209 245.919 56.2662 239.642 59.2499 232.068C60.0602 229.988 60.6601 227.829 61.5576 225.784C62.3299 224.024 63.3185 222.357 64.0029 220.563C64.7749 218.536 65.1455 216.382 65.095 214.219C65.056 212.592 64.7789 210.974 64.8272 209.348C64.8755 207.722 65.2967 206.025 66.4413 204.85C67.4588 203.804 68.9045 203.302 70.2156 202.644C72.2775 201.605 74.0788 200.129 75.4896 198.323C76.3151 197.267 76.3591 196.816 76.5691 195.597C76.7733 194.412 77.5168 193.408 77.8375 192.258Z" fill="#2F2E41"/>
<path d="M77.8934 284.677C78.0205 285.969 77.7861 287.293 78.0684 288.559C78.2805 289.511 78.7734 290.376 79.0632 291.308C79.351 292.387 79.499 293.498 79.5037 294.615C79.5456 295.552 79.4737 296.691 78.6458 297.13C78.2822 297.323 77.8461 297.326 77.4676 297.488C77.0892 297.65 76.7645 298.109 76.9812 298.459C77.1634 298.753 77.577 298.757 77.916 298.827C78.255 298.896 78.628 299.248 78.4313 299.532C78.3522 299.626 78.247 299.693 78.1293 299.725C77.7827 299.829 77.4545 299.987 77.1568 300.193C76.8558 300.408 76.701 300.773 76.7565 301.139C76.7978 301.314 76.9172 301.46 77.0803 301.535C77.2434 301.611 77.432 301.606 77.5917 301.524C77.4398 301.849 77.3568 302.201 77.348 302.56C78.6727 303.13 80.1638 302.384 81.4105 301.659C81.9512 301.36 82.4731 301.027 82.9735 300.664C85.0118 299.089 86.1396 296.607 85.9861 294.035C85.9284 293.397 85.8306 292.764 85.6936 292.138C85.5003 291.051 85.2451 289.975 84.9294 288.916C84.573 287.8 84.0831 286.731 83.663 285.637C82.7678 283.306 82.1915 280.865 81.3854 278.502C81.3621 278.274 81.2447 278.065 81.0615 277.927C80.8783 277.789 80.6459 277.734 80.4202 277.774C79.5118 277.727 78.6014 277.811 77.717 278.023C77.1825 278.18 76.3058 278.523 76.0662 279.083C75.8503 279.588 76.2121 280.04 76.4417 280.473C77.1933 281.767 77.6864 283.195 77.8934 284.677Z" fill="#EFB7B9"/>
<path opacity="0.1" d="M77.3143 222.761C77.5724 223.03 77.7886 223.339 77.9552 223.675C79.6742 226.877 79.696 230.709 79.7768 234.362C79.8678 238.474 80.0874 242.582 80.307 246.689L80.9638 258.972C81.0265 260.146 81.0894 261.321 81.25 262.484C82.0226 262.684 82.0546 263.707 81.965 264.518C81.412 269.531 80.0359 274.691 81.477 279.514C81.5321 279.763 81.6481 279.993 81.814 280.183C81.0876 279.948 80.3099 279.937 79.5776 280.152C78.8592 280.307 78.1685 280.576 77.4527 280.743C76.5418 280.956 75.5092 281.047 74.8878 281.761C74.1856 279.594 73.6264 277.381 73.214 275.136C72.8729 273.096 72.78 270.976 71.969 269.081C71.6415 268.315 71.204 267.606 70.8048 266.877C68.7044 263.043 67.676 258.707 66.6709 254.433C66.2197 252.406 66.1115 250.315 66.3511 248.251C66.4939 247.309 66.5777 246.359 66.6021 245.406C66.5381 244.401 66.4095 243.401 66.2173 242.413C65.793 239.516 65.9917 236.558 66.7996 233.747C67.5523 231.137 68.2122 228.391 69.7862 226.199C71.3603 224.006 74.6584 222.798 77.3143 222.761Z" fill="black"/>
<path d="M77.3143 221.761C77.5724 222.03 77.7886 222.339 77.9552 222.675C79.6742 225.877 79.696 229.709 79.7768 233.362C79.8678 237.474 80.0874 241.582 80.307 245.689L80.9638 257.972C81.0265 259.146 81.0894 260.321 81.25 261.484C82.0226 261.684 82.0546 262.707 81.965 263.518C81.412 268.531 80.0359 273.691 81.477 278.514C81.5321 278.763 81.6481 278.993 81.814 279.183C81.0876 278.948 80.3099 278.937 79.5776 279.152C78.8592 279.307 78.1685 279.576 77.4527 279.743C76.5418 279.956 75.5092 280.047 74.8878 280.761C74.1856 278.594 73.6264 276.381 73.2141 274.136C72.8729 272.096 72.78 269.976 71.969 268.081C71.6415 267.315 71.204 266.606 70.8048 265.877C68.7044 262.043 67.676 257.707 66.6709 253.433C66.2197 251.406 66.1115 249.315 66.3511 247.251C66.4939 246.309 66.5777 245.359 66.6021 244.406C66.5381 243.401 66.4095 242.401 66.2173 241.413C65.793 238.516 65.9917 235.558 66.7996 232.747C67.5523 230.137 68.2122 227.391 69.7862 225.199C71.3603 223.006 74.6584 221.798 77.3143 221.761Z" fill="#111B47"/>
<g opacity="0.1">
<path d="M75.697 185.342C74.1619 183.421 72.1785 181.689 69.7566 181.207C67.7884 180.815 65.7489 181.288 63.7478 181.13C61.9739 180.991 60.2743 180.36 58.5096 180.133C56.9134 179.963 55.3006 180.024 53.7219 180.314C52.2212 180.531 50.7545 180.937 49.3575 181.523C48.6026 181.856 47.8822 182.262 47.2063 182.733C48.4517 182.266 49.7438 181.931 51.0607 181.735C52.6394 181.446 54.2521 181.385 55.8484 181.555C57.613 181.781 59.3127 182.413 61.0865 182.552C63.0877 182.71 65.1271 182.236 67.0953 182.628C69.5173 183.111 71.5007 184.843 73.0358 186.763C74.4644 188.55 75.6586 190.84 75.0514 193.04C74.7316 194.198 73.9905 195.21 73.7869 196.404C73.5776 197.631 73.5338 198.085 72.7109 199.149C71.6516 200.517 70.3704 201.701 68.9196 202.652C69.32 202.463 69.7233 202.278 70.1147 202.08C72.1701 201.032 73.9657 199.546 75.3721 197.727C76.195 196.663 76.2388 196.209 76.4482 194.982C76.6518 193.788 77.3928 192.777 77.7126 191.618C78.3199 189.418 77.1257 187.129 75.697 185.342Z" fill="black"/>
<path d="M66.3521 204.301C66.5667 204.08 66.8003 203.879 67.0503 203.699C65.8571 204.272 64.6019 204.777 63.6909 205.722C62.5499 206.907 62.13 208.616 62.0819 210.253C62.0337 211.891 62.31 213.521 62.3488 215.159C62.3992 217.338 62.0297 219.507 61.2602 221.549C60.5779 223.356 59.5924 225.035 58.8226 226.808C57.9278 228.868 57.3299 231.042 56.5221 233.137C53.9419 239.75 49.36 245.407 43.4066 249.33C43.3763 249.399 43.3491 249.468 43.3181 249.536C50.5814 245.665 56.2089 239.344 59.1833 231.715C59.9911 229.62 60.5891 227.446 61.4838 225.386C62.2536 223.613 63.2391 221.935 63.9214 220.127C64.6909 218.085 65.0604 215.917 65.01 213.737C64.9712 212.099 64.695 210.469 64.7431 208.832C64.7912 207.194 65.2111 205.485 66.3521 204.301Z" fill="black"/>
</g>
<path d="M338.525 385.583C337.925 386.265 336.897 386.402 335.967 386.492C334.765 386.656 333.546 386.678 332.339 386.558C330.905 386.357 330.045 387.124 328.735 386.534C327.942 386.177 326.722 386.891 325.929 386.534C324.843 386.044 321.091 385.943 320.429 384.988C319.768 384.033 319.835 382.524 320.881 381.96C321.178 381.827 321.484 381.715 321.797 381.623C323.548 380.967 327.096 376.02 328.959 375.767C329.883 375.726 330.801 375.93 331.609 376.354C333.446 377.122 336.689 377.728 337.491 379.675C338.115 381.193 339.824 384.1 338.525 385.583Z" fill="#2F2E41"/>
<path d="M351.47 386.161C352.063 386.883 353.079 387.029 353.999 387.124C355.186 387.297 356.391 387.321 357.584 387.193C359.002 386.98 360.73 388.207 362.025 387.582C362.809 387.204 364.015 387.401 364.798 387.023C365.872 386.505 370.922 387.66 371.576 386.649C372.229 385.638 372.163 384.04 371.129 383.443C370.836 383.303 370.533 383.183 370.223 383.086C368.492 382.391 362.768 376.035 360.926 375.767C360.012 375.724 359.105 375.94 358.306 376.389C356.491 377.202 353.284 377.843 352.492 379.906C351.875 381.512 350.186 384.591 351.47 386.161Z" fill="#2F2E41"/>
<path d="M357.088 273.604C357.653 274.682 358.147 275.794 358.566 276.936C363.581 290.097 364.001 304.479 364.209 318.548C364.191 320.835 364.323 323.121 364.603 325.392C364.813 326.832 365.145 328.287 364.931 329.726C364.746 330.971 364.155 332.198 364.391 333.434C364.496 333.989 364.764 334.503 364.87 335.057C364.951 335.665 364.934 336.282 364.82 336.885L364.147 341.847C363.764 344.674 362.88 347.397 362.928 350.249C362.961 352.195 362.994 354.144 363.213 356.077C363.434 358.041 363.847 359.989 363.868 361.965C363.884 363.444 363.68 364.916 363.548 366.389C363.362 368.471 363.32 370.562 363.422 372.649C363.5 374.257 363.686 375.926 364.546 377.292C363.583 378.662 362.629 379.889 361.087 380.56C357.953 381.923 354.358 381.461 350.972 380.973C351.159 380.353 351.45 379.651 351.179 379.062C351.02 378.777 350.824 378.513 350.598 378.277C349.859 377.234 349.345 376.051 349.091 374.801C348.681 373.32 348.271 371.725 349.112 370.303C349.402 369.796 349.53 369.215 349.479 368.634C348.778 359.305 346.686 349.652 348.613 340.495C348.819 339.518 349.064 338.546 349.179 337.554C349.282 336.128 349.299 334.696 349.23 333.267L349.19 331.278C349.089 329.156 349.176 326.981 348.747 324.881C348.44 323.378 347.866 321.867 348.573 320.335C348.886 319.623 348.847 318.808 348.468 318.128C346.981 315.543 345.785 312.804 344.901 309.959C344.717 309.164 344.466 308.386 344.15 307.634C343.718 306.84 343.222 306.084 342.667 305.37C340.989 302.957 339.985 300.156 339 297.392C339.105 297.138 339.025 296.785 338.751 296.822C338.48 296.89 338.247 297.062 338.104 297.3C336.755 299.1 336.642 301.5 336.581 303.742C336.478 305.825 336.514 307.913 336.688 309.991C336.804 311.08 336.995 312.16 337.094 313.251C337.223 315.285 337.19 317.327 336.996 319.357L336.307 329.344C336.214 330.17 336.264 331.005 336.455 331.814C336.898 333.214 337.113 334.674 337.094 336.141C336.913 342.174 337.438 348.207 338.661 354.12C338.997 355.752 339.386 357.374 339.672 359.016C340.345 362.885 340.437 366.828 340.528 370.754C340.583 373.167 340.623 375.668 339.664 377.887C339.29 378.571 339.015 379.304 338.848 380.065C338.844 380.457 338.792 380.848 338.691 381.227C338.41 381.945 337.566 382.251 336.806 382.415C335.38 382.723 333.917 382.826 332.461 382.722C332.119 382.717 331.782 382.642 331.47 382.504C330.927 382.225 330.639 381.633 330.226 381.186C329.335 380.221 327.854 379.925 327.043 378.894C326.028 377.604 326.454 375.735 327.058 374.212C327.662 372.69 328.41 371.036 327.89 369.484C327.277 367.654 325.105 366.668 324.522 364.829C326.186 357.41 322.099 349.736 322.449 342.144C322.531 340.375 322.84 338.62 322.846 336.849C322.862 332.289 320.871 327.852 321.198 323.303C322.031 311.744 318.062 300.204 316.38 288.736C316.062 287.024 315.943 285.282 316.026 283.543C316.275 280.673 317.619 278.001 319.234 275.607C320.392 273.891 321.784 272.212 323.702 271.41C325.281 270.749 327.05 270.751 328.764 270.765C333.04 270.798 337.316 270.83 341.591 270.907C344.501 270.866 347.407 271.124 350.263 271.676C352.576 272.201 354.739 273.271 357.088 273.604Z" fill="#2F2E41"/>
<path d="M288.641 220.886C288.212 218.816 289.023 216.601 288.389 214.582C288.16 213.854 287.598 213.098 286.825 213.119C286.075 213.139 285.567 213.864 284.901 214.207C283.828 214.76 282.525 214.258 281.453 213.703C280.381 213.149 279.186 212.522 278.023 212.854C277.886 213.572 278.378 214.257 278.913 214.762C279.506 215.204 279.996 215.764 280.352 216.407C280.527 217.102 280.593 217.819 280.549 218.534C280.671 220.174 281.724 221.586 282.777 222.862C284.473 224.917 286.274 226.886 288.173 228.761C288.17 228.758 291.055 225.239 290.999 224.625C290.947 224.045 289.976 223.502 289.624 223.035C289.141 222.398 288.806 221.664 288.641 220.886Z" fill="#A1616A"/>
<path d="M370.591 263.137C370.833 263.786 371.015 264.457 371.133 265.142C371.834 268.649 372.276 272.205 372.712 275.758C372.828 276.706 372.944 277.656 372.98 278.611C373.103 280.879 372.651 283.14 371.669 285.172C370.669 287.21 368.971 288.79 366.903 289.604C366.267 289.838 365.377 289.88 365.099 289.244C365 288.95 365.002 288.63 365.105 288.338C365.356 287.392 365.868 286.542 366.2 285.623C366.692 284.25 366.774 282.756 366.435 281.334C366.305 280.79 366.029 280.183 365.496 280.075C365.762 281.329 365.538 282.64 364.873 283.725C364.722 284.027 364.461 284.255 364.147 284.36C363.694 284.407 363.269 284.124 363.124 283.679C362.994 283.241 362.966 282.779 363.041 282.328C363.212 280.049 363.548 277.786 364.047 275.559C364.641 273.115 365.582 270.703 365.521 268.183C365.467 265.9 364.585 263.659 364.832 261.389C364.836 261.249 364.879 261.113 364.958 260.998C365.035 260.919 365.13 260.859 365.234 260.823C365.851 260.56 366.487 260.342 367.135 260.174C367.518 260.074 368.825 259.605 369.192 259.815C369.489 259.985 369.581 261.002 369.729 261.346C369.992 261.955 370.342 262.52 370.591 263.137Z" fill="#A1616A"/>
<path d="M326 195.761C330.971 195.761 335 191.732 335 186.761C335 181.791 330.971 177.761 326 177.761C321.029 177.761 317 181.791 317 186.761C317 191.732 321.029 195.761 326 195.761Z" fill="#A1616A"/>
<path d="M334.684 193.371C334.683 193.964 334.73 194.555 334.824 195.14C334.952 195.731 335.132 196.31 335.364 196.868C335.673 197.777 336.109 198.637 336.659 199.422C337.218 200.212 338.055 200.76 339 200.954C332.678 203.931 325.928 205.891 319 206.761C320.092 206.032 321 205.058 321.653 203.916C322 203.182 322.236 202.402 322.356 201.599C322.946 198.239 322.646 194.782 321.487 191.576C321.372 191.26 321.259 190.872 321.477 190.616C321.569 190.521 321.682 190.448 321.805 190.401C324.552 189.233 327.519 188.677 330.501 188.772C331.263 188.777 332.025 188.811 332.785 188.866C333.193 188.896 334.096 188.809 334.421 189.11C334.809 189.469 334.615 190.583 334.627 191.07L334.684 193.371Z" fill="#A1616A"/>
<path d="M338.95 200.544C336.148 196.982 331.259 195.774 327.1 197.616C322.694 199.702 320.524 204.711 316.649 207.657C315.768 208.311 314.828 208.885 313.843 209.371C313.261 209.69 312.641 209.934 311.997 210.096C311.272 210.254 310.516 210.232 309.795 210.404C308.421 210.805 307.25 211.706 306.518 212.926C306.156 213.565 305.753 214.18 305.314 214.769C304.909 215.246 304.406 215.631 303.978 216.088C302.437 217.73 302.019 220.088 301.667 222.304C300.462 223.563 299.146 224.714 297.736 225.743C297.292 226.082 296.8 226.352 296.275 226.544C294.92 226.98 293.425 226.426 292.269 225.598C291.114 224.77 290.173 223.679 289.033 222.83C287.987 224.314 286.893 225.802 285.777 227.236C285.609 227.509 285.352 227.718 285.049 227.828C284.84 228.527 285.342 229.251 285.718 229.878L287.737 233.242C288.404 234.467 289.222 235.604 290.173 236.628C291.138 237.657 292.455 238.293 293.867 238.41C294.758 238.402 295.641 238.234 296.472 237.915C300.319 236.632 303.85 234.584 307.509 232.844C308.172 232.468 308.914 232.252 309.677 232.214C310.46 232.193 311.161 232.693 311.39 233.436C311.809 235.538 312.226 237.632 312.803 239.696C313.347 241.643 313.853 243.601 314.319 245.568C314.631 246.771 314.854 247.996 314.986 249.232C315.046 249.934 315.053 250.639 315.059 251.343L315.137 259.854C315.145 260.771 314.619 261.342 314.213 262.166C313.592 263.443 313.498 264.911 313.952 266.256C314.18 266.92 314.536 267.534 314.788 268.189C315.398 269.772 315.375 271.516 315.343 273.211L315.27 277.095C315.252 277.256 315.281 277.419 315.355 277.563C315.594 277.934 316.17 277.717 316.534 277.466L318.365 276.208C320.815 276.543 323.29 276.661 325.761 276.562C332.789 276.461 339.818 276.739 346.829 277.225C349.169 277.388 351.587 277.564 353.798 276.79C354.92 276.397 355.954 275.769 357.101 275.454C357.574 275.381 358.023 275.198 358.411 274.919C359.053 274.33 358.883 273.297 358.621 272.469C358.392 271.746 358.132 271.033 357.841 270.33C357.541 269.684 357.297 269.014 357.111 268.328C356.76 266.779 357.101 264.989 356.129 263.727C353.952 260.903 355.493 256.559 354.579 253.122C354.284 252.01 353.847 250.938 353.57 249.821C353.396 249.12 353.286 248.405 353.176 247.691C352.89 246.147 352.748 244.58 352.752 243.01C352.778 242.225 352.878 241.444 352.978 240.664L353.669 235.25C354.534 236.851 355.135 238.579 355.449 240.368C356.078 243.041 356.853 245.677 357.77 248.267C358.292 249.828 358.813 251.39 359.376 252.937C359.733 253.818 360.008 254.729 360.197 255.659C360.321 256.409 360.325 257.174 360.412 257.93C360.602 259.55 361.173 261.103 362.081 262.463C362.248 262.778 362.526 263.022 362.862 263.15C363.088 263.192 363.321 263.182 363.544 263.123C365.988 262.644 368.353 261.832 370.572 260.711C371.045 260.517 371.456 260.2 371.759 259.792C372.357 258.828 371.689 257.625 371.398 256.531C371.087 255.359 371.16 253.948 370.229 253.163C366.987 250.427 368.596 244.872 366.974 240.969C366.689 240.284 366.357 239.617 366.112 238.917C365.924 238.382 365.788 237.831 365.651 237.281C364.518 232.735 363.306 228.21 362.014 223.705C360.675 219.034 360.818 214.169 359.132 209.61C358.815 208.654 358.401 207.733 357.897 206.86C357.326 205.948 356.563 205.17 355.661 204.577C353.214 202.972 350.744 201.605 347.87 201.023C344.995 200.441 341.883 200.531 338.95 200.544Z" fill="#D0CDE1"/>
<path d="M317.599 188.89C316.349 188.221 316.679 186.404 316.466 185.009C316.029 182.139 312.766 180.436 312 177.634C312.88 177.742 313.773 177.616 314.589 177.27C314.746 176.34 314.561 175.384 314.067 174.579C316.751 173.495 318.923 171.369 321.648 170.392C325.075 169.163 328.891 169.917 332.348 171.059C334.073 171.629 335.868 172.369 336.911 173.849C338.056 175.474 338.039 177.613 337.977 179.597C337.881 182.708 337.757 185.93 336.364 188.718C334.59 192.266 329.567 195.553 325.417 194.592C323.691 194.192 323.183 193.115 322.456 191.624C322.003 190.696 321.833 189.619 320.814 189.136C319.817 188.665 318.61 189.432 317.599 188.89Z" fill="#2F2E41"/>
<g opacity="0.1">
<path d="M355.612 255.05C355.624 255.295 355.631 255.542 355.633 255.79C355.621 255.546 355.615 255.298 355.612 255.05Z" fill="black"/>
<path d="M315.526 264.331C316.136 265.925 316.113 267.68 316.081 269.386C316.073 269.832 316.064 270.277 316.056 270.722C316.017 269.802 315.839 268.894 315.526 268.027C315.274 267.368 314.918 266.751 314.69 266.083C314.3 264.915 314.314 263.65 314.731 262.491C314.959 263.119 315.288 263.707 315.526 264.331Z" fill="black"/>
</g>
<g opacity="0.1">
<path d="M314.483 175.73L314.474 175.734C314.398 175.156 314.242 174.603 314.013 174.103C314.155 174.026 314.295 173.944 314.434 173.859C314.544 174.472 314.56 175.108 314.483 175.73Z" fill="black"/>
</g>
<path d="M24 157.761L21.8249 155.777C14.1007 148.606 9.00126 143.952 9.00126 138.154C8.9626 135.926 9.81766 133.776 11.3717 132.195C12.9257 130.614 15.0463 129.736 17.2505 129.762C19.8566 129.776 22.3247 130.948 24 132.966C25.6752 130.948 28.1434 129.776 30.7494 129.762C32.9537 129.736 35.0743 130.614 36.6283 132.195C38.1823 133.776 39.0374 135.926 38.9987 138.154C38.9987 143.952 33.8992 148.606 26.1751 155.777L24 157.761Z" fill="#FF6584"/>
<path fill-rule="evenodd" clip-rule="evenodd" d="M28 152.761L25.8249 150.777C18.1007 143.606 13.0013 138.952 13.0013 133.154C12.9626 130.926 13.8177 128.776 15.3717 127.195C16.9257 125.614 19.0463 124.736 21.2505 124.762C23.8566 124.776 26.3247 125.948 28 127.966C29.6752 125.948 32.1434 124.776 34.7494 124.762C36.9537 124.736 39.0743 125.614 40.6283 127.195C42.1823 128.776 43.0374 130.926 42.9987 133.154C42.9987 138.952 37.8992 143.606 30.1751 150.777L28 152.761Z" stroke="#3F3D56" stroke-width="2"/>
</svg>
