<svg width="480" height="317" viewBox="0 0 480 317" fill="none" xmlns="http://www.w3.org/2000/svg">
    <path d="M99.0802 137.824C74.7797 137.935 55 138.292 55 138.292C55 138.292 78.5112 107.386 98.992 118.836C119.473 130.287 143 137.889 143 137.889C143 137.889 123.381 137.713 99.0802 137.824Z" fill="#F2F2F2"/>
    <path d="M371 147.292C373.761 147.292 376 145.053 376 142.292C376 139.53 373.761 137.292 371 137.292C368.239 137.292 366 139.53 366 142.292C366 145.053 368.239 147.292 371 147.292Z" fill="#FF6584"/>
    <path d="M333.99 221.606L371.977 177.985L373.149 179.006L335.162 222.627L333.99 221.606Z" fill="#3F3D56"/>
    <path d="M373 186.292C377.418 186.292 381 182.71 381 178.292C381 173.873 377.418 170.292 373 170.292C368.582 170.292 365 173.873 365 178.292C365 182.71 368.582 186.292 373 186.292Z" fill="#3F3D56"/>
    <path d="M349.286 205.292C349.286 205.292 364.646 185.719 345 172.292L349.286 205.292Z" fill="#3F3D56"/>
    <path d="M94.578 239.696C122.726 291.887 182.467 314.292 182.467 314.292C182.467 314.292 196.57 252.078 168.422 199.887C140.274 147.696 80.5332 125.292 80.5332 125.292C80.5332 125.292 66.4298 187.506 94.578 239.696Z" fill="#3F3D56"/>
    <path d="M113.621 222.752C164.431 253.408 184 314.3 184 314.3C184 314.3 121.189 325.488 70.3788 294.832C19.5686 264.175 0 203.284 0 203.284C0 203.284 62.811 192.095 113.621 222.752Z" fill="#111B47"/>
    <path d="M315.194 223.022C264.108 253.259 244 314.042 244 314.042C244 314.042 306.719 325.799 357.806 295.562C408.892 265.324 429 204.542 429 204.542C429 204.542 366.281 192.784 315.194 223.022Z" fill="#3F3D56"/>
    <path d="M333.739 241.512C305.134 293.427 245.207 315.292 245.207 315.292C245.207 315.292 231.657 252.986 260.261 201.071C288.866 149.156 348.793 127.292 348.793 127.292C348.793 127.292 362.343 189.598 333.739 241.512Z" fill="#111B47"/>
    <path d="M229.881 99.3318C223.866 93.8891 223.024 84.7426 227.944 78.2918C227.63 78.5864 227.323 78.8923 227.029 79.2175C221.25 85.6111 221.747 95.4804 228.138 101.261C234.528 107.042 244.393 106.545 250.171 100.152C250.465 99.8265 250.739 99.4902 251 99.148C245.079 104.693 235.898 104.773 229.881 99.3318Z" fill="#2F2E41"/>
    <path d="M215.5 110.292C233.449 110.292 248 95.741 248 77.7918C248 59.8425 233.449 45.2918 215.5 45.2918C197.551 45.2918 183 59.8425 183 77.7918C183 95.741 197.551 110.292 215.5 110.292Z" fill="#2F2E41"/>
    <path d="M206.238 119.323L207.212 116.817L189.476 131.657L168.038 143.606C168.038 143.606 157.123 101.978 156.344 101.207C155.564 100.436 141.532 71.1415 135.295 85.0177C129.058 98.8939 147.378 106.988 147.378 106.988C147.378 106.988 147.963 157.675 166.673 157.29C185.384 156.904 208.576 140.137 208.966 138.595C209.356 137.053 206.238 119.323 206.238 119.323Z" fill="#FFB8B8"/>
    <path d="M211.5 111.292C222.27 111.292 231 102.561 231 91.7918C231 81.0222 222.27 72.2918 211.5 72.2918C200.73 72.2918 192 81.0222 192 91.7918C192 102.561 200.73 111.292 211.5 111.292Z" fill="#FFB8B8"/>
    <path d="M214.879 106.042C214.879 106.042 219.943 112.61 218.385 113.383C216.827 114.155 207.868 114.542 202.414 121.11C196.961 127.678 209.036 144.292 209.036 144.292L255 113.769L236.303 107.587C236.303 107.587 223.449 100.633 223.838 93.2918L214.879 106.042Z" fill="#FFB8B8"/>
    <path d="M277 316.292H225.37C222.445 294.954 221.093 275.4 221.093 275.4C221.093 275.4 220.339 295.069 218.331 316.292H152C161.403 253.451 205.978 185.307 205.978 185.307C205.978 185.307 206.366 176.025 207.529 174.477C208.693 172.934 200.941 172.547 197.451 160.947C195.323 153.866 197.236 149.233 199.055 146.701C199.679 145.789 200.447 144.984 201.329 144.317C201.329 144.317 202.105 136.2 201.329 135.039C201.23 134.887 201.995 134.354 203.41 133.543C204.589 132.863 206.219 131.99 208.169 130.986C219.338 125.207 240.957 114.983 248.363 111.5C249.987 110.731 250.931 110.292 250.931 110.292L264.107 114.931C274.568 118.408 274.568 140.452 274.568 140.452L273.976 141.351L258.164 165.251L248.992 179.121C251.319 180.663 246.67 190.333 246.67 190.333C246.67 190.333 253.295 199.83 258.682 214.327C261.729 222.395 263.807 230.795 264.872 239.352C265.551 244.897 265.685 250.495 265.27 256.066C263.834 274.694 270.218 297.334 277 316.292Z" fill="#2F2E41"/>
    <path d="M263.951 116.726C263.091 116.237 262.063 116.157 261.139 116.506C260.216 116.856 259.492 117.599 259.161 118.538C258.007 121.746 256.838 128.434 257.255 142.339C258.021 167.912 258.404 185.348 258.404 185.348V224.095C258.404 224.095 241.551 261.292 250.744 261.292C259.936 261.292 266.447 231.844 266.447 231.844C266.447 231.844 274.874 187.286 272.192 179.536C272.192 179.536 279.752 126.001 263.951 116.726Z" fill="#FFB8B8"/>
    <path d="M209.5 86.2918C218.613 86.2918 226 81.1431 226 74.7918C226 68.4405 218.613 63.2918 209.5 63.2918C200.387 63.2918 193 68.4405 193 74.7918C193 81.1431 200.387 86.2918 209.5 86.2918Z" fill="#2F2E41"/>
    <path d="M236 65.2918C244.837 65.2918 252 58.1283 252 49.2918C252 40.4552 244.837 33.2918 236 33.2918C227.163 33.2918 220 40.4552 220 49.2918C220 58.1283 227.163 65.2918 236 65.2918Z" fill="#2F2E41"/>
    <path d="M247 60.6764C238.682 60.6752 231.752 54.422 231.06 46.2918C231.023 46.7234 231 47.1587 231 47.5995C231 56.2661 238.163 63.2918 247 63.2918C255.837 63.2918 263 56.2661 263 47.5995C263 47.1587 262.977 46.7234 262.94 46.2918C262.248 54.422 255.318 60.6753 247 60.6764Z" fill="#2F2E41"/>
    <path d="M230.389 88.3102C231.118 88.1362 231.386 86.6452 230.988 84.98C230.591 83.3148 229.678 82.1059 228.949 82.28C228.22 82.454 227.952 83.9449 228.35 85.6102C228.748 87.2754 229.661 88.4842 230.389 88.3102Z" fill="#FFB8B8"/>
    <path d="M230 88.2918C230.552 88.2918 231 87.8441 231 87.2918C231 86.7395 230.552 86.2918 230 86.2918C229.448 86.2918 229 86.7395 229 87.2918C229 87.8441 229.448 88.2918 230 88.2918Z" fill="#F2F2F2"/>
    <path fill-rule="evenodd" clip-rule="evenodd" d="M40 147.792C40 151.382 42.9101 154.292 46.5 154.292C50.0882 154.288 52.996 151.38 53 147.792C53 144.202 50.0899 141.292 46.5 141.292C42.9101 141.292 40 144.202 40 147.792ZM41.0833 147.792C41.0833 144.8 43.5085 142.375 46.5 142.375C49.4901 142.379 51.9132 144.802 51.9167 147.792C51.9167 150.783 49.4915 153.208 46.5 153.208C43.5085 153.208 41.0833 150.783 41.0833 147.792Z" fill="#3F3D56"/>
    <path fill-rule="evenodd" clip-rule="evenodd" d="M304 108.292H318V94.2918H304V108.292ZM316.923 107.215H305.077V95.3687H316.923V107.215Z" fill="#3F3D56"/>
    <path d="M436.08 180.824C411.78 180.935 392 181.292 392 181.292C392 181.292 415.511 150.386 435.992 161.836C456.473 173.287 480 180.889 480 180.889C480 180.889 460.381 180.713 436.08 180.824Z" fill="#F2F2F2"/>
    <path d="M361.08 75.8243C336.78 75.9355 317 76.2918 317 76.2918C317 76.2918 340.511 45.386 360.992 56.8364C381.473 68.2867 405 75.8893 405 75.8893C405 75.8893 385.381 75.7132 361.08 75.8243Z" fill="#F2F2F2"/>
    <path d="M131.358 89.4247L75.2363 60.4529C71.4039 58.4744 69.8946 53.7516 71.8653 49.9041L85.0868 24.0909C85.4748 23.3334 86.1559 22.7692 86.9705 22.5308L131.205 9.58219C134.877 8.50715 138.746 10.5042 140.011 14.1284L154.545 55.7492C155.279 57.8505 155.12 60.1622 154.106 62.1423L141.865 86.0405C140.919 87.8881 139.28 89.2826 137.31 89.9173C135.339 90.552 133.198 90.3748 131.358 89.4247Z" fill="#F2F2F2"/>
    <path opacity="0.1" d="M133.347 79.8678L76.8055 55.6267C74.9836 54.6859 76.6919 56.132 77.6287 54.3024L84.7363 25.2918L154 61.0592L136.489 82.8026C135.553 84.6322 135.169 80.8085 133.347 79.8678Z" fill="black"/>
    <path d="M86.1566 62.9324C82.136 60.865 80.5527 55.9297 82.6201 51.9091L101.66 14.8822C103.727 10.8617 108.663 9.27832 112.683 11.3457L149.71 30.3854C153.731 32.4529 155.314 37.3882 153.246 41.4087L134.207 78.4356C132.139 82.4562 127.204 84.0395 123.183 81.9721L86.1566 62.9324Z" fill="#111B47"/>
    <path opacity="0.1" d="M145 56.8773L130.458 85.2918L79 58.7057L93.542 30.2918L112.877 56.0795L145 56.8773Z" fill="black"/>
    <path d="M112.252 57.9486L87.2877 24.8939C86.9738 24.4783 86.4677 24.2529 85.948 24.2973C85.4282 24.3416 84.9678 24.6495 84.7293 25.1122L70.5238 52.6678C69.9499 53.7812 69.8428 55.0764 70.2262 56.2685C70.6096 57.4606 71.4521 58.4519 72.5683 59.0244L134.46 90.7693C135.577 91.3418 136.875 91.4486 138.07 91.0661C139.265 90.6837 140.259 89.8433 140.833 88.73L154.795 61.6464C155.086 61.0818 155.066 60.4075 154.741 59.8614C154.416 59.3154 153.833 58.9743 153.196 58.9586L112.252 57.9486Z" fill="#F2F2F2"/>
    <path d="M107.412 14.6239L121.839 22.0423L120.79 24.0825L106.363 16.664L107.412 14.6239Z" fill="#F2F2F2"/>
    <path d="M102.425 21.4564L145.268 43.4869L144.669 44.6527L101.826 22.6222L102.425 21.4564Z" fill="#F2F2F2"/>
    <path d="M100.402 25.391L143.245 47.4214L142.646 48.5872L99.8024 26.5568L100.402 25.391Z" fill="#F2F2F2"/>
    <path d="M98.3785 29.3255L141.222 51.356L140.622 52.5218L97.7791 30.4913L98.3785 29.3255Z" fill="#F2F2F2"/>
    <path d="M113.073 12.5735C114.773 9.26776 113.476 5.21241 110.176 3.51564C106.877 1.81887 102.824 3.1232 101.124 6.42896C99.4239 9.73471 100.721 13.7901 104.021 15.4868C107.32 17.1836 111.373 15.8793 113.073 12.5735Z" fill="white"/>
    <path fill-rule="evenodd" clip-rule="evenodd" d="M99.8874 5.63418C101.908 1.70577 106.733 0.158721 110.664 2.17875C114.583 4.20782 116.128 9.01983 114.121 12.9494C112.1 16.8778 107.275 18.4248 103.345 16.4048C99.4142 14.3848 97.8664 9.56259 99.8874 5.63418ZM101.82 6.81344L103.592 12.3334L113.541 9.14895L113.044 7.60067L104.646 10.2936L103.369 6.31672L101.82 6.81344Z" fill="#57B894"/>
</svg>
