<svg width="445" height="313" viewBox="0 0 445 313" fill="none" xmlns="http://www.w3.org/2000/svg">
    <path d="M167 304.935C246.529 304.935 311 240.464 311 160.935C311 81.4059 246.529 16.9349 167 16.9349C87.471 16.9349 23 81.4059 23 160.935C23 240.464 87.471 304.935 167 304.935Z" fill="#F2F2F2"/>
    <path d="M190.108 182.892C158.401 231.769 167.089 293.935 167.089 293.935C167.089 293.935 227.184 276.855 258.892 227.978C290.599 179.1 281.911 116.935 281.911 116.935C281.911 116.935 221.816 134.015 190.108 182.892Z" fill="#3F3D56"/>
    <path d="M166.991 292.935C166.991 292.935 166.215 292.812 164.786 292.524C163.646 292.294 162.077 291.965 160.16 291.513C143.029 287.493 97.4849 273.904 67.7083 238.176C30.4401 193.438 32.0095 130.935 32.0095 130.935C32.0095 130.935 88.9938 140.151 126.543 180.326C128.17 182.052 129.753 183.842 131.292 185.694C163.72 224.62 166.743 276.995 166.983 289.943C167.016 291.883 166.991 292.935 166.991 292.935Z" fill="#222F65"/>
    <path fill-rule="evenodd" clip-rule="evenodd" d="M143.892 182.892C175.599 231.769 166.911 293.935 166.911 293.935C166.911 293.935 106.816 276.855 75.1083 227.978C43.4009 179.1 52.0888 116.935 52.0888 116.935C52.0888 116.935 112.184 134.015 143.892 182.892Z" stroke="#3F3D56" stroke-width="2"/>
    <path opacity="0.1" d="M167 290.991C166.16 292.006 165.419 292.873 164.81 293.583C163.459 295.126 162.693 295.935 162.693 295.935C162.693 295.935 161.763 294.763 160.199 292.567C151.61 280.566 123.984 237.894 126.117 188.603C126.232 186.019 126.422 183.463 126.685 180.935C128.307 182.668 129.886 184.465 131.42 186.325C163.747 225.406 166.761 277.991 167 290.991Z" fill="black"/>
    <path d="M214.883 192.216C212.355 250.482 168.922 295.935 168.922 295.935C168.922 295.935 129.588 246.92 132.117 188.654C134.645 130.388 178.078 84.9349 178.078 84.9349C178.078 84.9349 217.412 133.95 214.883 192.216Z" fill="#222F65"/>
    <path d="M169 293.935L178 86.9349" stroke="#3F3D56" stroke-width="2"/>
    <path d="M222.5 312.935C345.383 312.935 445 306.667 445 298.935C445 291.203 345.383 284.935 222.5 284.935C99.6166 284.935 0 291.203 0 298.935C0 306.667 99.6166 312.935 222.5 312.935Z" fill="#3F3D56"/>
    <path d="M37 293.935V237.935V293.935Z" fill="#3F3D56"/>
    <path d="M37 293.935V237.935" stroke="#3F3D56" stroke-width="2"/>
    <path d="M37 245.935C41.4183 245.935 45 242.353 45 237.935C45 233.517 41.4183 229.935 37 229.935C32.5817 229.935 29 233.517 29 237.935C29 242.353 32.5817 245.935 37 245.935Z" fill="#3F3D56"/>
    <path d="M37 272.935C37 272.935 35.8837 248.303 13 251.167L37 272.935Z" fill="#3F3D56"/>
    <path d="M228 202.935V46.9349V202.935Z" fill="#3F3D56"/>
    <path d="M228 202.935V46.9349" stroke="#3F3D56" stroke-width="2"/>
    <path d="M228 58.9349C234.075 58.9349 239 54.0101 239 47.9349C239 41.8598 234.075 36.9349 228 36.9349C221.925 36.9349 217 41.8598 217 47.9349C217 54.0101 221.925 58.9349 228 58.9349Z" fill="#3F3D56"/>
    <path d="M228 91.9349C228 91.9349 226.465 58.3465 195 62.2507L228 91.9349Z" fill="#3F3D56"/>
    <path d="M358.286 116.935L348.909 134.57C348.909 134.57 281.108 147.526 289.763 167.68C298.419 187.834 308.156 217.345 313.205 216.626C318.254 215.906 346.024 200.07 347.106 195.392C348.188 190.713 322.221 168.76 322.221 168.76L365.138 160.482C365.138 160.482 371.269 189.274 363.335 209.068C355.401 228.862 350.712 282.486 356.122 283.206C361.531 283.926 375.236 288.244 381.367 284.286C387.498 280.327 390.383 193.592 390.383 193.592C390.383 193.592 403.366 136.729 395.432 130.251C387.498 123.773 358.286 116.935 358.286 116.935Z" fill="#2F2E41"/>
    <path d="M372.942 275.192C372.942 275.192 364.564 270.768 362.8 274.307C362.8 274.307 364.123 284.925 358.831 286.252C353.539 287.579 351.334 296.87 358.831 297.754C366.327 298.639 371.178 295.985 373.824 295.985C376.47 295.985 373.824 286.694 373.824 286.694L372.942 275.192Z" fill="#2F2E41"/>
    <path d="M332.965 202.77C332.965 202.77 323.836 200.21 322.855 204.055C322.855 204.055 326.383 214.189 321.485 216.614C316.586 219.039 316.384 228.62 323.905 227.896C331.426 227.172 335.614 223.539 338.203 222.977C340.791 222.416 336.248 213.865 336.248 213.865L332.965 202.77Z" fill="#2F2E41"/>
    <path d="M378.395 54.7936C378.395 54.7936 378.752 68.2236 376.258 69.3125C373.765 70.4014 390.15 76.9349 390.15 76.9349L393 71.8533C393 71.8533 389.794 53.7047 390.507 52.2528C391.219 50.8009 378.395 54.7936 378.395 54.7936Z" fill="#9F616A"/>
    <path d="M384 57.9349C396.15 57.9349 406 48.0852 406 35.9349C406 23.7847 396.15 13.9349 384 13.9349C371.85 13.9349 362 23.7847 362 35.9349C362 48.0852 371.85 57.9349 384 57.9349Z" fill="#2F2E41"/>
    <path d="M386 23.9349C390.971 23.9349 395 19.9055 395 14.9349C395 9.96437 390.971 5.93494 386 5.93494C381.029 5.93494 377 9.96437 377 14.9349C377 19.9055 381.029 23.9349 386 23.9349Z" fill="#2F2E41"/>
    <path d="M373.887 9.93493C373.887 5.32736 377.389 1.46398 382 0.983599C381.687 0.95126 381.372 0.935017 381.057 0.934937C376.055 0.934937 372 4.96437 372 9.93494C372 14.9055 376.055 18.9349 381.057 18.9349C381.372 18.9349 381.687 18.9186 382 18.8863C377.389 18.4059 373.887 14.5425 373.887 9.93493Z" fill="#2F2E41"/>
    <path d="M383 61.9349C391.284 61.9349 398 55.2192 398 46.9349C398 38.6507 391.284 31.9349 383 31.9349C374.716 31.9349 368 38.6507 368 46.9349C368 55.2192 374.716 61.9349 383 61.9349Z" fill="#9F616A"/>
    <path d="M394.251 66.7443C394.251 66.7443 381.297 70.6847 374.82 66.7443C368.343 62.804 352.87 74.2668 350.351 79.2818C347.832 84.2967 359.706 89.3117 359.706 89.3117C359.706 89.3117 356.316 98.9961 357.008 103.819C357.727 108.834 356.468 119.043 356.468 119.043C356.468 119.043 388.258 139.893 395.33 130.506C396.41 129.073 405.406 95.4013 405.406 95.4013L418 82.8639C418 82.8639 410.084 71.4011 405.406 70.3264C400.728 69.2518 394.251 66.7443 394.251 66.7443Z" fill="#D0CDE1"/>
    <path d="M306.937 139.935C306.937 139.935 282.684 152.773 287.677 156.441C292.671 160.109 313 142.136 313 142.136L306.937 139.935Z" fill="#9F616A"/>
    <path d="M402.922 130.874C402.922 130.874 391.927 123.157 390.156 127.015C388.386 130.874 402.195 139.562 405.103 136.162C408.01 132.762 402.922 130.874 402.922 130.874Z" fill="#9F616A"/>
    <path d="M411.768 77.9349L418.181 81.9232C418.181 81.9232 439.914 112.379 432.433 119.268C424.951 126.157 405.712 139.935 405.712 139.935C405.712 139.935 399.299 130.508 401.436 130.145C403.574 129.783 420.675 115.28 420.675 115.28L405.712 86.9993L411.768 77.9349Z" fill="#D0CDE1"/>
    <path d="M354.179 76.9349L349.513 78.7455L337.308 100.834L305 140.303C305 140.303 309.308 147.183 312.897 145.735C316.487 144.286 343.41 113.869 343.41 113.869L361 86.3496L354.179 76.9349Z" fill="#D0CDE1"/>
    <path d="M384.5 37.9349C393.06 37.9349 400 33.9055 400 28.9349C400 23.9644 393.06 19.9349 384.5 19.9349C375.94 19.9349 369 23.9644 369 28.9349C369 33.9055 375.94 37.9349 384.5 37.9349Z" fill="#2F2E41"/>
    <rect x="282" y="223.935" width="71" height="71" fill="#222F65"/>
    <path fill-rule="evenodd" clip-rule="evenodd" d="M330.867 273.344C338.301 273.344 343 267.022 343 256.99C343 243.344 332.546 233.935 317.46 233.935C301.766 233.935 291 244.522 291 259.941C291 275.74 301.549 285.92 318.029 285.934C320.885 285.948 323.733 285.64 326.52 285.013C327.65 284.74 328.356 283.615 328.11 282.479C327.863 281.343 326.755 280.611 325.612 280.83C323.181 281.259 320.715 281.467 318.246 281.453C304.691 281.453 295.983 273.141 295.983 260.117C295.983 247.378 304.785 238.375 317.135 238.375C329.621 238.375 338.071 245.916 338.071 257.193C338.071 264.26 335.688 268.809 331.936 268.809C329.77 268.809 328.565 267.495 328.565 265.316V247.811H323.161V251.575H322.62C321.374 248.827 318.544 247.148 315.213 247.148C308.726 247.148 304.284 252.414 304.284 259.982C304.284 267.861 308.699 273.154 315.307 273.154C319.018 273.154 321.78 271.435 323.121 268.294H323.662C324.164 271.313 327.061 273.344 330.867 273.344ZM316.309 268.145C312.477 268.145 310.121 265.113 310.121 260.104C310.121 255.081 312.436 252.13 316.377 252.13C320.345 252.13 322.891 255.176 322.891 260.104C322.891 265.031 320.345 268.145 316.309 268.145Z" fill="white"/>
</svg>
