<svg width="16" height="16" viewBox="0 0 16 16" fill="none" xmlns="http://www.w3.org/2000/svg">
<path d="M16 2.87225C15.405 3.13325 14.771 3.30625 14.11 3.39025C14.79 2.98425 15.309 2.34625 15.553 1.57725C14.919 1.95525 14.219 2.22225 13.473 2.37125C12.871 1.73025 12.013 1.33325 11.077 1.33325C9.261 1.33325 7.799 2.80725 7.799 4.61425C7.799 4.87425 7.821 5.12425 7.875 5.36225C5.148 5.22925 2.735 3.92225 1.114 1.93125C0.831 2.42225 0.665 2.98425 0.665 3.58925C0.665 4.72525 1.25 5.73225 2.122 6.31525C1.595 6.30525 1.078 6.15225 0.64 5.91125C0.64 5.92125 0.64 5.93425 0.64 5.94725C0.64 7.54125 1.777 8.86525 3.268 9.17025C3.001 9.24325 2.71 9.27825 2.408 9.27825C2.198 9.27825 1.986 9.26625 1.787 9.22225C2.212 10.5213 3.418 11.4763 4.852 11.5073C3.736 12.3803 2.319 12.9063 0.785 12.9063C0.516 12.9063 0.258 12.8943 0 12.8613C1.453 13.7983 3.175 14.3333 5.032 14.3333C11.068 14.3333 14.368 9.33325 14.368 4.99925C14.368 4.85425 14.363 4.71425 14.356 4.57525C15.007 4.11325 15.554 3.53625 16 2.87225Z" fill="#B0B8BC"/>
</svg>
