<svg width="16" height="16" viewBox="0 0 16 16" fill="none" xmlns="http://www.w3.org/2000/svg">
<path fill-rule="evenodd" clip-rule="evenodd" d="M13.456 2.75875C14.415 2.81275 14.886 2.95475 15.32 3.72675C15.772 4.49775 16 5.82575 16 8.16475V8.16775V8.17275C16 10.5007 15.772 11.8387 15.321 12.6017C14.887 13.3737 14.416 13.5137 13.457 13.5787C12.498 13.6337 10.089 13.6667 8.002 13.6667C5.911 13.6667 3.501 13.6337 2.543 13.5777C1.586 13.5127 1.115 13.3727 0.677 12.6007C0.23 11.8377 0 10.4997 0 8.17175V8.16975V8.16675V8.16375C0 5.82575 0.23 4.49775 0.677 3.72675C1.115 2.95375 1.587 2.81275 2.544 2.75775C3.501 2.69375 5.911 2.66675 8.002 2.66675C10.089 2.66675 12.498 2.69375 13.456 2.75875ZM11 8.16675L6 5.16675V11.1667L11 8.16675Z" fill="#B0B8BC"/>
</svg>
